<svg width="41" height="41" viewBox="0 0 41 41" fill="none" xmlns="http://www.w3.org/2000/svg">
<path opacity="0.4" d="M20.5 40C31.2696 40 40 31.2696 40 20.5C40 9.73045 31.2696 1 20.5 1C9.73045 1 1 9.73045 1 20.5C1 31.2696 9.73045 40 20.5 40Z" fill="#F9F9F9" stroke="#3D20E5" stroke-width="1.01" stroke-miterlimit="10"/>
<path opacity="0.4" d="M11.22 20.5101L18.32 27.7201L30.9 15.1401" stroke="#3D20E5" stroke-width="5.04" stroke-miterlimit="10"/>
<path opacity="0.4" d="M34.5501 21.66C34.2748 25.1814 32.6871 28.471 30.1013 30.8771C27.5155 33.2833 24.1203 34.6305 20.5882 34.6518C17.0561 34.6732 13.6449 33.3672 11.0301 30.9926C8.41537 28.6179 6.78789 25.3478 6.47005 21.83L4.64005 22.64L2.64005 21.5C2.58966 26.2341 4.42195 30.7943 7.73385 34.1775C11.0457 37.5607 15.5659 39.4896 20.3001 39.54C25.0342 39.5904 29.5944 37.7581 32.9776 34.4462C36.3607 31.1343 38.2897 26.6141 38.34 21.88L36.43 22.64L34.5501 21.66Z" fill="#3D20E5"/>
<path opacity="0.4" d="M6.45005 19.7001C6.6397 16.1152 8.19151 12.7381 10.7882 10.2593C13.3849 7.78048 16.8304 6.38715 20.4202 6.36416C24.0101 6.34117 27.4731 7.69027 30.1013 10.1356C32.7296 12.581 34.3245 15.9379 34.5601 19.5201L36.4001 20.5201L38.3401 19.7201C38.1258 15.1647 36.1772 10.8639 32.8936 7.69924C29.61 4.5346 25.2402 2.74592 20.6801 2.69989C16.1199 2.65385 11.7149 4.35395 8.36809 7.45165C5.02126 10.5493 2.98619 14.81 2.68005 19.3601L4.68005 20.5001L6.45005 19.7001Z" fill="#3D20E5"/>
</svg>
