<svg width="35" height="31" viewBox="0 0 35 31" fill="none" xmlns="http://www.w3.org/2000/svg">
<path opacity="0.5" d="M5.897 20.3874L6.00522 20.4968C8.01819 22.5273 16.4459 30.9996 16.92 30.9996C17.4589 30.9996 17.5174 30.4701 17.5174 30.4701L17.5801 23.3631H24.0202C29.5439 23.3631 34.0215 18.9368 34.0215 13.4772V13.2399C34.0215 7.78025 29.5439 3.354 24.0202 3.354H13.0434C7.56004 3.354 3.10843 7.72126 3.04782 13.129C3.04782 13.1667 3.04277 13.2001 3.04277 13.2399V13.4772C3.03788 16.0601 4.06285 18.5416 5.897 20.3874V20.3874Z" fill="white"/>
<path opacity="0.4" d="M20.7992 0H10.0987C4.52136 0 0 4.45373 0 9.94768V10.0436C0 15.5376 4.52136 19.9913 10.0987 19.9913H20.7992C26.3766 19.9913 30.8979 15.5376 30.8979 10.0436V9.94768C30.8979 4.45373 26.3766 0 20.7992 0Z" fill="white"/>
</svg>
