<svg xmlns="http://www.w3.org/2000/svg" xmlns:xlink="http://www.w3.org/1999/xlink" viewBox="0 0 396.53 92.47"><defs><style>.cls-1{isolation:isolate;}.cls-2{fill:url(#linear-gradient);}.cls-3,.cls-4,.cls-5,.cls-6{fill:none;stroke:#000;stroke-miterlimit:10;stroke-width:1px;}.cls-4{stroke-dasharray:3.97 3.97;}.cls-5{stroke-dasharray:3.98 3.98;}.cls-6{stroke-dasharray:3.97 3.97;}.cls-7{fill:#00c650;}.cls-7,.cls-8{mix-blend-mode:color-dodge;opacity:0.4;}.cls-8{fill:#3d20e5;}</style><linearGradient id="linear-gradient" x1="216.41" y1="115.9" x2="495.83" y2="115.9" gradientUnits="userSpaceOnUse"><stop offset="0" stop-color="#4347d9"/><stop offset="1" stop-color="#5ad7ac"/></linearGradient></defs><g class="cls-1"><g id="Layer_1" data-name="Layer 1"><path class="cls-2" d="M227.94,115.26h11.18v13.37a11.19,11.19,0,0,1-4.31,2.18,18.58,18.58,0,0,1-4.95.69,15.41,15.41,0,0,1-5.33-.9,11,11,0,0,1-4.26-2.81,13.42,13.42,0,0,1-2.83-4.86,21.31,21.31,0,0,1-1-7,19.16,19.16,0,0,1,1.22-7.22,13.72,13.72,0,0,1,3.22-4.84,12.22,12.22,0,0,1,4.47-2.7,16,16,0,0,1,5.06-.83,24.15,24.15,0,0,1,4.52.38,20.57,20.57,0,0,1,3.1.82l-1.2,4.93a12,12,0,0,0-2.39-.67,19.85,19.85,0,0,0-3.39-.23,9.86,9.86,0,0,0-3.38.55,6.57,6.57,0,0,0-2.68,1.82,8.74,8.74,0,0,0-1.76,3.24,16.22,16.22,0,0,0-.62,4.8,15.84,15.84,0,0,0,.6,4.64,9.07,9.07,0,0,0,1.67,3.22,6.64,6.64,0,0,0,2.51,1.86,7.84,7.84,0,0,0,3.06.6,8.54,8.54,0,0,0,2.19-.28,5,5,0,0,0,1.8-.83V119.5l-6.47-.68Z" transform="translate(-99.3 -72.45)"/><path class="cls-2" d="M242.29,120.19q0-5.44,2.65-8.38a9.58,9.58,0,0,1,7.46-2.93,11.19,11.19,0,0,1,4.45.81A8.34,8.34,0,0,1,260,112a9.92,9.92,0,0,1,1.87,3.58,16.41,16.41,0,0,1,.62,4.63c0,3.62-.88,6.42-2.64,8.37a9.45,9.45,0,0,1-7.43,2.94,11.1,11.1,0,0,1-4.46-.82,8.55,8.55,0,0,1-3.15-2.29,9.56,9.56,0,0,1-1.88-3.58A16.34,16.34,0,0,1,242.29,120.19Zm5.74,0a11.9,11.9,0,0,0,.26,2.61,7,7,0,0,0,.77,2.1,3.68,3.68,0,0,0,1.35,1.39,3.82,3.82,0,0,0,2,.5,3.64,3.64,0,0,0,3.25-1.59,9.09,9.09,0,0,0,1.08-5,10,10,0,0,0-1-4.78,3.5,3.5,0,0,0-3.34-1.82,3.78,3.78,0,0,0-3.21,1.54C248.41,116.16,248,117.85,248,120.19Z" transform="translate(-99.3 -72.45)"/><path class="cls-2" d="M265.29,120.19q0-5.44,2.66-8.38a9.56,9.56,0,0,1,7.45-2.93,11.24,11.24,0,0,1,4.46.81A8.34,8.34,0,0,1,283,112a9.75,9.75,0,0,1,1.86,3.58,16.06,16.06,0,0,1,.62,4.63c0,3.62-.88,6.42-2.63,8.37a9.48,9.48,0,0,1-7.44,2.94,11,11,0,0,1-4.45-.82,8.39,8.39,0,0,1-3.15-2.29,9.56,9.56,0,0,1-1.88-3.58A16,16,0,0,1,265.29,120.19Zm5.74,0a12.55,12.55,0,0,0,.26,2.61,7.33,7.33,0,0,0,.77,2.1,3.65,3.65,0,0,0,3.34,1.89,3.66,3.66,0,0,0,3.26-1.59,9.19,9.19,0,0,0,1.07-5,10.14,10.14,0,0,0-1-4.78,3.5,3.5,0,0,0-3.35-1.82,3.78,3.78,0,0,0-3.21,1.54Q271,116.68,271,120.19Z" transform="translate(-99.3 -72.45)"/><path class="cls-2" d="M307.54,123.36c0,1.2,0,2.4,0,3.6a32.35,32.35,0,0,0,.38,4h-4l-.77-2.78H303a6.53,6.53,0,0,1-2.47,2.42,7.52,7.52,0,0,1-3.79.92,7.71,7.71,0,0,1-6.25-2.66q-2.23-2.66-2.23-8.31,0-5.49,2.48-8.53c1.66-2,4.09-3,7.29-3a13,13,0,0,1,2.18.15,8.78,8.78,0,0,1,1.72.5v-8.7h5.57Zm-9.47,3.43a3.87,3.87,0,0,0,2.57-.8A4.29,4.29,0,0,0,302,123.7v-9.08a4.27,4.27,0,0,0-1.33-.71,6.24,6.24,0,0,0-1.89-.23,4.1,4.1,0,0,0-3.53,1.58Q294,116.85,294,120.7a8.79,8.79,0,0,0,1,4.41A3.29,3.29,0,0,0,298.07,126.79Z" transform="translate(-99.3 -72.45)"/><path class="cls-2" d="M343.14,129.67a9,9,0,0,1-3.49,1.4,21.68,21.68,0,0,1-4.35.43,15.49,15.49,0,0,1-5.12-.84,10.68,10.68,0,0,1-4.26-2.7,13.21,13.21,0,0,1-2.94-4.84,21,21,0,0,1-1.09-7.22,19.46,19.46,0,0,1,1.22-7.39,13.45,13.45,0,0,1,3.17-4.8,11.77,11.77,0,0,1,4.35-2.61,15.18,15.18,0,0,1,4.8-.79,23.21,23.21,0,0,1,4.34.34,15.47,15.47,0,0,1,2.94.82l-1.16,5a8.2,8.2,0,0,0-2.33-.69,21.74,21.74,0,0,0-3.28-.21,7.14,7.14,0,0,0-5.72,2.53q-2.16,2.54-2.16,7.85a16.35,16.35,0,0,0,.51,4.23,9,9,0,0,0,1.56,3.27,7.26,7.26,0,0,0,2.62,2.1,8.27,8.27,0,0,0,3.62.75,12.08,12.08,0,0,0,3.25-.38,9.7,9.7,0,0,0,2.32-1Z" transform="translate(-99.3 -72.45)"/><path class="cls-2" d="M359.76,130.9V118.73A7.31,7.31,0,0,0,359,115a2.88,2.88,0,0,0-2.65-1.16,4,4,0,0,0-2.6,1,4.59,4.59,0,0,0-1.56,2.46V130.9h-5.57v-30h5.57v11h.17a7.71,7.71,0,0,1,2.53-2.19,8,8,0,0,1,3.81-.81,8.66,8.66,0,0,1,2.87.43,4.6,4.6,0,0,1,2.08,1.41,6.36,6.36,0,0,1,1.24,2.68,18.23,18.23,0,0,1,.41,4.17V130.9Z" transform="translate(-99.3 -72.45)"/><path class="cls-2" d="M369.87,110.72a18.53,18.53,0,0,1,4.07-1.22,26.2,26.2,0,0,1,4.93-.45,11.47,11.47,0,0,1,3.73.53,5.4,5.4,0,0,1,3.62,3.88,12.19,12.19,0,0,1,.36,3.09c0,1.25,0,2.52-.13,3.79s-.13,2.52-.15,3.75,0,2.42.11,3.57a13.34,13.34,0,0,0,.64,3.28h-4.54l-.9-3h-.21a7.83,7.83,0,0,1-2.38,2.3,7.25,7.25,0,0,1-3.92,1,7.65,7.65,0,0,1-2.7-.45,5.94,5.94,0,0,1-2.06-1.28,6,6,0,0,1-1.33-2,6.61,6.61,0,0,1-.47-2.54,6,6,0,0,1,.88-3.32,6.42,6.42,0,0,1,2.53-2.19,12.61,12.61,0,0,1,3.94-1.16,28.89,28.89,0,0,1,5.12-.19,5.56,5.56,0,0,0-.34-3.45c-.43-.7-1.39-1.05-2.87-1.05a19.45,19.45,0,0,0-3.54.35,12.17,12.17,0,0,0-3.06.9Zm7.07,15.94a4.31,4.31,0,0,0,2.66-.75,5.26,5.26,0,0,0,1.45-1.61v-2.78a15.64,15.64,0,0,0-2.55,0,9.47,9.47,0,0,0-2.16.39,3.53,3.53,0,0,0-1.5.86,1.91,1.91,0,0,0-.56,1.41A2.43,2.43,0,0,0,375,126,2.7,2.7,0,0,0,376.94,126.66Z" transform="translate(-99.3 -72.45)"/><path class="cls-2" d="M404.36,130.9V118.73a7.18,7.18,0,0,0-.75-3.77,2.81,2.81,0,0,0-2.55-1.16,4,4,0,0,0-2.68.93,5,5,0,0,0-1.56,2.29V130.9h-5.57V109.48h4.41l.64,2.82h.18a9,9,0,0,1,2.61-2.39,7.69,7.69,0,0,1,4.2-1,8.58,8.58,0,0,1,2.83.43,4.74,4.74,0,0,1,2.09,1.41,6.39,6.39,0,0,1,1.29,2.68,17.58,17.58,0,0,1,.43,4.17V130.9Z" transform="translate(-99.3 -72.45)"/><path class="cls-2" d="M429.76,129.57a9.05,9.05,0,0,1-3.1,1.43,14.3,14.3,0,0,1-3.75.5,10.33,10.33,0,0,1-4.35-.82,7.36,7.36,0,0,1-2.89-2.29,9.34,9.34,0,0,1-1.61-3.58,20.09,20.09,0,0,1-.49-4.62q0-5.44,2.44-8.38t7.11-2.93a15.42,15.42,0,0,1,3.79.38,13,13,0,0,1,2.6,1l-1.33,4.54a11.66,11.66,0,0,0-1.95-.73,8.65,8.65,0,0,0-2.21-.26,4.21,4.21,0,0,0-3.51,1.52,7.9,7.9,0,0,0-1.2,4.87,10.14,10.14,0,0,0,.3,2.53,6.16,6.16,0,0,0,.9,2,4.25,4.25,0,0,0,1.56,1.35,4.9,4.9,0,0,0,2.25.49,7.05,7.05,0,0,0,2.4-.36,9,9,0,0,0,1.76-.88Z" transform="translate(-99.3 -72.45)"/><path class="cls-2" d="M449.56,129.06a11,11,0,0,1-3.5,1.73,15.3,15.3,0,0,1-4.69.71q-5.17,0-7.58-3t-2.4-8.29q0-5.66,2.7-8.49t7.58-2.82a11.55,11.55,0,0,1,3.17.43,7.27,7.27,0,0,1,2.75,1.41,7,7,0,0,1,1.92,2.66,10.32,10.32,0,0,1,.73,4.15,16.66,16.66,0,0,1-.11,1.93c-.07.68-.17,1.4-.32,2.14H437a6.31,6.31,0,0,0,1.39,4.07,5.29,5.29,0,0,0,4.08,1.37,8.84,8.84,0,0,0,3.14-.53,8.45,8.45,0,0,0,2.11-1.1Zm-7.95-15.73a3.87,3.87,0,0,0-3.22,1.31,6.42,6.42,0,0,0-1.26,3.49h7.93a5.43,5.43,0,0,0-.7-3.55A3.14,3.14,0,0,0,441.61,113.33Z" transform="translate(-99.3 -72.45)"/><path class="cls-2" d="M478.22,124.26H469l-2.27,6.64h-5.87l10.79-30.21H476l10.8,30.21h-6.17Zm-7.71-4.72h6.42l-2.23-6.68-.9-4.71h-.21l-.9,4.75Z" transform="translate(-99.3 -72.45)"/><path class="cls-2" d="M490,100.91h5.87v30H490Z" transform="translate(-99.3 -72.45)"/><polyline class="cls-3" points="50.32 4.43 48.62 3.18 46.91 4.43"/><line class="cls-4" x1="43.7" y1="6.77" x2="6.81" y2="33.66"/><polyline class="cls-3" points="5.21 34.83 3.5 36.08 4.15 38.08"/><line class="cls-5" x1="5.38" y1="41.87" x2="19.47" y2="85.4"/><polyline class="cls-3" points="20.09 87.29 20.73 89.3 22.84 89.3"/><line class="cls-6" x1="26.81" y1="89.3" x2="72.41" y2="89.3"/><polyline class="cls-3" points="74.39 89.3 76.5 89.3 77.15 87.29"/><line class="cls-5" x1="78.37" y1="83.51" x2="92.47" y2="39.98"/><polyline class="cls-3" points="93.08 38.08 93.73 36.08 92.03 34.83"/><line class="cls-4" x1="88.82" y1="32.5" x2="51.92" y2="5.6"/><polygon class="cls-3" points="48.62 50.96 18.67 92.18 48.62 50.95 0.15 35.21 48.62 50.95 48.62 0 48.62 50.95 97.08 35.21 48.62 50.95 78.57 92.18 48.62 50.96"/><polygon class="cls-7" points="10.2 38.22 48.44 19.98 65.33 45.38 70.87 81.6 32.76 72.54 10.2 38.22"/><polygon class="cls-8" points="48.71 10.89 85.06 39.03 65.53 74.25 26.55 81.6 28.03 44.17 48.71 10.89"/></g></g></svg>