<svg width="33" height="31" viewBox="0 0 33 31" fill="none" xmlns="http://www.w3.org/2000/svg">
<g opacity="0.6">
<path d="M16.6324 12.828C16.6318 13.2653 16.7757 13.6905 17.0416 14.0376C17.3076 14.3846 17.6808 14.6341 18.1031 14.7472C18.5255 14.8604 18.9734 14.8308 19.3772 14.6631C19.7811 14.4954 20.1182 14.1991 20.3362 13.82L24.601 15.2283V23.5099C24.1304 23.626 23.7185 23.9104 23.4433 24.3094C23.168 24.7084 23.0483 25.1943 23.1068 25.6755C23.1653 26.1567 23.3979 26.5999 23.7608 26.9213C24.1236 27.2427 24.5916 27.4201 25.0763 27.4201C25.5611 27.4201 26.029 27.2427 26.3919 26.9213C26.7547 26.5999 26.9873 26.1567 27.0458 25.6755C27.1043 25.1943 26.9846 24.7084 26.7094 24.3094C26.4341 23.9104 26.0223 23.626 25.5517 23.5099V14.5419L20.599 12.9048C20.599 12.8797 20.599 12.8531 20.599 12.828C20.5985 12.3842 20.4496 11.9534 20.1759 11.604C19.9023 11.2546 19.5196 11.0069 19.0888 10.9001V3.91026C19.5594 3.79413 19.9713 3.50972 20.2465 3.11074C20.5218 2.71175 20.6415 2.2258 20.583 1.7446C20.5245 1.26341 20.2919 0.820283 19.929 0.49887C19.5662 0.177457 19.0982 0 18.6135 0C18.1287 0 17.6608 0.177457 17.2979 0.49887C16.9351 0.820283 16.7025 1.26341 16.644 1.7446C16.5855 2.2258 16.7052 2.71175 16.9804 3.11074C17.2557 3.50972 17.6675 3.79413 18.1381 3.91026V10.9001C17.7081 11.0075 17.3263 11.2555 17.0534 11.6049C16.7806 11.9542 16.6324 12.3848 16.6324 12.828V12.828Z" fill="white"/>
<path d="M10.4294 9.95824C10.4294 10.3305 10.5341 10.6953 10.7315 11.0109C10.9289 11.3265 11.2111 11.5803 11.5458 11.7433C11.8805 11.9062 12.2543 11.9718 12.6245 11.9325C12.9947 11.8932 13.3464 11.7506 13.6394 11.521C13.9325 11.2915 14.1551 10.9841 14.2818 10.6341C14.4085 10.284 14.4343 9.90544 14.3562 9.54145C14.2781 9.17747 14.0992 8.84278 13.84 8.57558C13.5808 8.30838 13.2517 8.11944 12.8903 8.03032V3.95598C13.3613 3.83984 13.7735 3.55527 14.049 3.156C14.3246 2.75673 14.4444 2.27039 14.3859 1.78881C14.3274 1.30722 14.0946 0.863716 13.7315 0.542026C13.3684 0.220336 12.9 0.0427246 12.4149 0.0427246C11.9298 0.0427246 11.4615 0.220336 11.0983 0.542026C10.7352 0.863716 10.5024 1.30722 10.4439 1.78881C10.3854 2.27039 10.5052 2.75673 10.7808 3.156C11.0564 3.55527 11.4686 3.83984 11.9396 3.95598V8.03032C11.5086 8.1366 11.1256 8.38425 10.8519 8.73372C10.5781 9.08319 10.4294 9.51432 10.4294 9.95824V9.95824Z" fill="white"/>
<path d="M23.547 6.76676V9.97013L28.1557 11.4892C28.1557 11.5438 28.1557 11.5999 28.1557 11.656C28.1565 12.0981 28.3047 12.5273 28.5769 12.8757C28.8491 13.2241 29.2297 13.4717 29.6585 13.5795V17.4545C29.1879 17.5706 28.7761 17.855 28.5008 18.254C28.2255 18.653 28.1058 19.139 28.1643 19.6202C28.2228 20.1014 28.4554 20.5445 28.8183 20.8659C29.1811 21.1873 29.6491 21.3648 30.1338 21.3648C30.6186 21.3648 31.0865 21.1873 31.4494 20.8659C31.8122 20.5445 32.0449 20.1014 32.1034 19.6202C32.1619 19.139 32.0422 18.653 31.7669 18.254C31.4916 17.855 31.0798 17.5706 30.6092 17.4545V13.5795C30.9243 13.5018 31.2155 13.3481 31.4574 13.1318C31.6993 12.9155 31.8845 12.6432 31.9968 12.3387C32.1091 12.0343 32.1451 11.7069 32.1015 11.3853C32.058 11.0637 31.9363 10.7577 31.7471 10.4941C31.5579 10.2304 31.307 10.0172 31.0163 9.87297C30.7256 9.72877 30.4039 9.65802 30.0795 9.66691C29.7552 9.67581 29.4379 9.76408 29.1555 9.924C28.8732 10.0839 28.6343 10.3106 28.4598 10.5842L24.4977 9.27779V6.76824C24.9687 6.6521 25.3809 6.36753 25.6565 5.96826C25.932 5.56899 26.0518 5.08265 25.9934 4.60106C25.9349 4.11948 25.7021 3.67597 25.3389 3.35428C24.9758 3.03259 24.5075 2.85498 24.0223 2.85498C23.5372 2.85498 23.0689 3.03259 22.7057 3.35428C22.3426 3.67597 22.1098 4.11948 22.0513 4.60106C21.9928 5.08265 22.1127 5.56899 22.3882 5.96826C22.6638 6.36753 23.076 6.6521 23.547 6.76824V6.76676Z" fill="white"/>
<path d="M21.6884 21.0388C21.6884 20.6665 21.5837 20.3018 21.3863 19.9861C21.1889 19.6705 20.9067 19.4167 20.572 19.2538C20.2373 19.0908 19.8635 19.0253 19.4933 19.0646C19.1232 19.1039 18.7715 19.2464 18.4784 19.476C18.1854 19.7056 17.9628 20.0129 17.836 20.363C17.7093 20.713 17.6835 21.0916 17.7616 21.4556C17.8397 21.8196 18.0186 22.1543 18.2778 22.4215C18.537 22.6887 18.8661 22.8776 19.2276 22.9667V27.0411C18.7566 27.1572 18.3444 27.4418 18.0688 27.841C17.7932 28.2403 17.6734 28.7266 17.7319 29.2082C17.7904 29.6898 18.0232 30.1333 18.3863 30.455C18.7494 30.7767 19.2178 30.9543 19.7029 30.9543C20.188 30.9543 20.6564 30.7767 21.0195 30.455C21.3826 30.1333 21.6154 29.6898 21.6739 29.2082C21.7324 28.7266 21.6126 28.2403 21.337 27.841C21.0615 27.4418 20.6493 27.1572 20.1782 27.0411V22.9667C20.6091 22.8602 20.992 22.6125 21.2657 22.2631C21.5394 21.9137 21.6882 21.4827 21.6884 21.0388Z" fill="white"/>
<path d="M6.56469 7.48705V16.1849L11.5277 17.9563C11.5205 18.0279 11.5171 18.0999 11.5174 18.1718C11.5175 18.6155 11.6661 19.0463 11.9395 19.3957C12.213 19.7451 12.5954 19.993 13.0261 20.0998V27.0867C12.555 27.2028 12.1428 27.4874 11.8673 27.8866C11.5917 28.2859 11.4719 28.7723 11.5304 29.2538C11.5889 29.7354 11.8217 30.1789 12.1848 30.5006C12.5479 30.8223 13.0163 30.9999 13.5014 30.9999C13.9865 30.9999 14.4549 30.8223 14.818 30.5006C15.1811 30.1789 15.4139 29.7354 15.4724 29.2538C15.5309 28.7723 15.4111 28.2859 15.1355 27.8866C14.8599 27.4874 14.4478 27.2028 13.9767 27.0867V20.0968C14.2897 20.0196 14.5792 19.8672 14.8201 19.653C15.0611 19.4388 15.2462 19.1692 15.3596 18.8674C15.473 18.5656 15.5111 18.2407 15.4708 17.9209C15.4305 17.601 15.3129 17.2958 15.1282 17.0316C14.9435 16.7673 14.6972 16.5521 14.4107 16.4044C14.1241 16.2566 13.8059 16.1809 13.4835 16.1838C13.1611 16.1866 12.8443 16.2679 12.5604 16.4206C12.2765 16.5733 12.034 16.7928 11.8539 17.0603L7.51685 15.5147V7.48705C7.98776 7.37075 8.3998 7.08608 8.67521 6.68678C8.95061 6.28749 9.07032 5.80119 9.01174 5.31968C8.95315 4.83817 8.72033 4.39476 8.35722 4.07315C7.99411 3.75154 7.52583 3.57397 7.04077 3.57397C6.55571 3.57397 6.08743 3.75154 5.72432 4.07315C5.36121 4.39476 5.12839 4.83817 5.06981 5.31968C5.01122 5.80119 5.13093 6.28749 5.40634 6.68678C5.68174 7.08608 6.09378 7.37075 6.56469 7.48705V7.48705Z" fill="white"/>
<path d="M0 19.3366C0.000467559 19.7651 0.13952 20.1819 0.396391 20.5248C0.653263 20.8677 1.01417 21.1183 1.42522 21.2392C1.83626 21.3601 2.27539 21.3448 2.67702 21.1956C3.07865 21.0464 3.42124 20.7712 3.65361 20.4113L7.63937 21.7118V24.2214C7.16876 24.3375 6.75694 24.6219 6.48166 25.0209C6.20638 25.4199 6.0867 25.9058 6.14519 26.387C6.20368 26.8682 6.43631 27.3113 6.79917 27.6328C7.16202 27.9542 7.62998 28.1316 8.11471 28.1316C8.59945 28.1316 9.06741 27.9542 9.43026 27.6328C9.79311 27.3113 10.0257 26.8682 10.0842 26.387C10.1427 25.9058 10.023 25.4199 9.74777 25.0209C9.47249 24.6219 9.06067 24.3375 8.59005 24.2214V21.0254L3.96214 19.5152C3.96214 19.4576 3.96214 19.4001 3.96214 19.341C3.96252 18.901 3.81673 18.4733 3.54766 18.1252C3.27859 17.777 2.90149 17.5281 2.4756 17.4175V13.5336C2.94662 13.4175 3.35882 13.1329 3.63437 12.7336C3.90993 12.3344 4.02977 11.848 3.97127 11.3664C3.91277 10.8849 3.67999 10.4414 3.31686 10.1197C2.95373 9.79797 2.48539 9.62036 2.00026 9.62036C1.51514 9.62036 1.0468 9.79797 0.683666 10.1197C0.320537 10.4414 0.0877471 10.8849 0.0292495 11.3664C-0.0292482 11.848 0.0905943 12.3344 0.36615 12.7336C0.641705 13.1329 1.0539 13.4175 1.52492 13.5336V17.4175C1.09252 17.5204 0.70717 17.7654 0.430659 18.1134C0.154147 18.4614 0.00248936 18.8921 0 19.3366V19.3366Z" fill="white"/>
</g>
</svg>
