<svg width="340" height="294" viewBox="0 0 340 294" fill="none" xmlns="http://www.w3.org/2000/svg">
<path opacity="0.3" d="M98.4452 198.562C152.815 198.562 196.89 154.487 196.89 100.117C196.89 45.747 152.815 1.67163 98.4452 1.67163C44.0754 1.67163 0 45.747 0 100.117C0 154.487 44.0754 198.562 98.4452 198.562Z" fill="#5FF9A1"/>
<path opacity="0.21" d="M156.841 293.671C212.134 293.671 256.958 248.847 256.958 193.554C256.958 138.261 212.134 93.4373 156.841 93.4373C101.548 93.4373 56.724 138.261 56.724 193.554C56.724 248.847 101.548 293.671 156.841 293.671Z" fill="#23BEE2"/>
<path opacity="0.21" d="M205.228 200.234C260.521 200.234 305.344 155.41 305.344 100.117C305.344 44.8238 260.521 0 205.228 0C149.935 0 105.111 44.8238 105.111 100.117C105.111 155.41 149.935 200.234 205.228 200.234Z" fill="#3D20E5"/>
<g opacity="0.9">
<path d="M212.626 263.776H203.226L199.4 270.917H193L210.961 238.435H215.389L219.536 270.917H213.542L212.626 263.776ZM205.849 258.705H212.395L211.654 251.493L211.703 246.423H211.472L209.626 251.535L205.849 258.705Z" fill="url(#paint0_radial_59_172)"/>
<path d="M229.301 238.988C230.779 238.711 232.271 238.513 233.77 238.393C235.271 238.267 236.621 238.204 237.82 238.204C239.172 238.195 240.52 238.367 241.827 238.715C243.006 239.015 244.117 239.537 245.101 240.254C246.031 240.959 246.782 241.874 247.29 242.925C247.851 244.128 248.126 245.445 248.094 246.772C248.13 248.274 247.871 249.769 247.332 251.172C246.876 252.337 246.197 253.401 245.332 254.305C244.518 255.136 243.557 255.809 242.499 256.292C241.465 256.757 240.37 257.072 239.247 257.229L241.044 258.663L245.513 270.917H238.862L234.434 258.327L231.259 257.725L228.461 270.952H222.474L229.301 238.988ZM232.203 253.41H234.665C235.546 253.411 236.424 253.326 237.288 253.158C238.103 253.009 238.879 252.695 239.568 252.235C240.241 251.78 240.795 251.171 241.184 250.458C241.627 249.594 241.841 248.631 241.806 247.661C241.821 246.658 241.439 245.69 240.743 244.968C240.035 244.217 238.899 243.842 237.337 243.842C236.722 243.842 236.148 243.842 235.609 243.912C235.071 243.982 234.616 244.009 234.253 244.072L232.203 253.41Z" fill="url(#paint1_radial_59_172)"/>
<path d="M264.083 254.102H273.757L270.714 268.476C269.411 269.504 267.939 270.297 266.364 270.819C264.781 271.323 263.128 271.573 261.467 271.56C259.868 271.576 258.281 271.279 256.795 270.686C255.391 270.114 254.124 269.248 253.081 268.147C251.993 266.964 251.162 265.569 250.64 264.048C250.029 262.247 249.733 260.354 249.766 258.453C249.696 255.336 250.189 252.232 251.221 249.29C252.065 246.906 253.408 244.73 255.159 242.904C256.791 241.249 258.775 239.982 260.964 239.197C263.208 238.395 265.575 237.99 267.958 238.001C269.527 237.984 271.093 238.131 272.63 238.442C273.694 238.64 274.737 238.939 275.743 239.337L273.351 244.632C272.577 244.289 271.764 244.043 270.931 243.898C269.776 243.699 268.605 243.606 267.434 243.618C265.879 243.603 264.339 243.917 262.915 244.541C261.529 245.164 260.302 246.095 259.327 247.262C258.252 248.573 257.445 250.082 256.949 251.703C256.341 253.674 256.044 255.727 256.068 257.788C256.068 260.341 256.662 262.335 257.858 263.783C258.444 264.491 259.186 265.055 260.026 265.429C260.865 265.804 261.78 265.98 262.698 265.944C264.104 265.975 265.486 265.575 266.657 264.797L267.951 258.67L263.251 257.928L264.083 254.102Z" fill="url(#paint2_radial_59_172)"/>
<path d="M297.139 245.199C296.321 244.714 295.45 244.324 294.544 244.038C293.319 243.634 292.035 243.435 290.746 243.45C290.041 243.45 289.339 243.518 288.647 243.653C288.012 243.785 287.402 244.021 286.843 244.352C286.334 244.649 285.904 245.064 285.591 245.562C285.273 246.092 285.113 246.701 285.129 247.318C285.105 248.154 285.403 248.968 285.962 249.591C286.58 250.261 287.286 250.844 288.06 251.326C288.913 251.862 289.827 252.408 290.802 252.962C291.776 253.518 292.694 254.167 293.544 254.9C294.396 255.651 295.107 256.548 295.642 257.551C296.233 258.727 296.519 260.033 296.474 261.349C296.516 262.96 296.193 264.559 295.53 266.028C294.925 267.303 294.006 268.403 292.858 269.224C291.613 270.1 290.205 270.719 288.717 271.043C286.956 271.445 285.153 271.64 283.346 271.623C282.322 271.625 281.299 271.564 280.282 271.441C279.317 271.316 278.422 271.162 277.589 270.98C276.847 270.819 276.116 270.611 275.4 270.357C274.882 270.168 274.381 269.934 273.903 269.658L277.009 264.314C277.395 264.547 277.797 264.752 278.212 264.93C278.763 265.17 279.328 265.375 279.905 265.545C280.582 265.743 281.271 265.9 281.968 266.014C282.7 266.139 283.442 266.202 284.185 266.203C285.008 266.207 285.83 266.136 286.64 265.993C287.348 265.882 288.03 265.645 288.654 265.293C289.195 265 289.655 264.58 289.997 264.069C290.342 263.514 290.512 262.869 290.487 262.216C290.502 261.423 290.203 260.656 289.655 260.083C289.029 259.44 288.324 258.881 287.556 258.418C286.71 257.893 285.794 257.348 284.822 256.774C283.84 256.206 282.921 255.535 282.08 254.774C281.213 253.979 280.502 253.031 279.982 251.976C279.388 250.736 279.101 249.371 279.142 247.996C279.097 246.424 279.421 244.862 280.086 243.436C280.676 242.201 281.554 241.126 282.646 240.303C283.78 239.48 285.063 238.886 286.423 238.554C287.944 238.175 289.507 237.989 291.075 238.002C291.967 238.003 292.859 238.049 293.746 238.141C294.597 238.227 295.442 238.358 296.278 238.533C297.029 238.686 297.769 238.884 298.496 239.128C299.088 239.32 299.658 239.575 300.195 239.89L297.139 245.199Z" fill="url(#paint3_radial_59_172)"/>
</g>
<path d="M215.614 166.493C233.944 166.493 248.802 151.634 248.802 133.305C248.802 114.976 233.944 100.117 215.614 100.117C197.285 100.117 182.426 114.976 182.426 133.305C182.426 151.634 197.285 166.493 215.614 166.493Z" fill="url(#paint4_linear_59_172)"/>
<path d="M149.231 127.877C167.56 127.877 182.419 113.018 182.419 94.6891C182.419 76.3598 167.56 61.501 149.231 61.501C130.902 61.501 116.043 76.3598 116.043 94.6891C116.043 113.018 130.902 127.877 149.231 127.877Z" fill="url(#paint5_linear_59_172)"/>
<path d="M110.14 194.26C128.469 194.26 143.328 179.402 143.328 161.072C143.328 142.743 128.469 127.884 110.14 127.884C91.8105 127.884 76.9517 142.743 76.9517 161.072C76.9517 179.402 91.8105 194.26 110.14 194.26Z" fill="url(#paint6_linear_59_172)"/>
<path d="M176.523 229.113C194.852 229.113 209.711 214.254 209.711 195.925C209.711 177.596 194.852 162.737 176.523 162.737C158.194 162.737 143.335 177.596 143.335 195.925C143.335 214.254 158.194 229.113 176.523 229.113Z" fill="url(#paint7_linear_59_172)"/>
<path d="M97.8792 164.573C97.1833 164.573 96.5689 164.397 96.0361 164.046C95.5033 163.691 95.0864 163.19 94.7856 162.545C94.4847 161.896 94.3343 161.13 94.3343 160.245C94.3343 159.368 94.4847 158.607 94.7856 157.962C95.0864 157.317 95.5051 156.818 96.0415 156.467C96.578 156.115 97.1978 155.939 97.901 155.939C98.4447 155.939 98.8742 156.03 99.1895 156.211C99.5085 156.389 99.7514 156.592 99.9181 156.82C100.088 157.045 100.221 157.23 100.315 157.375H100.424V153.264H101.707V164.399H100.467V163.116H100.315C100.221 163.268 100.087 163.46 99.9127 163.692C99.7387 163.921 99.4904 164.126 99.1678 164.307C98.8452 164.484 98.4157 164.573 97.8792 164.573ZM98.0532 163.421C98.5679 163.421 99.0029 163.286 99.3581 163.018C99.7133 162.746 99.9833 162.371 100.168 161.893C100.353 161.411 100.445 160.854 100.445 160.224C100.445 159.6 100.355 159.055 100.174 158.587C99.9924 158.116 99.7242 157.75 99.369 157.489C99.0138 157.224 98.5752 157.092 98.0532 157.092C97.5095 157.092 97.0564 157.231 96.694 157.51C96.3351 157.786 96.0651 158.161 95.8839 158.636C95.7062 159.107 95.6174 159.636 95.6174 160.224C95.6174 160.818 95.7081 161.358 95.8893 161.844C96.0741 162.326 96.346 162.71 96.7048 162.996C97.0673 163.279 97.5168 163.421 98.0532 163.421ZM106.693 164.595C106.163 164.595 105.683 164.495 105.252 164.296C104.82 164.093 104.478 163.801 104.224 163.421C103.97 163.036 103.844 162.572 103.844 162.029C103.844 161.55 103.938 161.162 104.126 160.865C104.315 160.564 104.567 160.329 104.882 160.158C105.197 159.988 105.545 159.861 105.926 159.778C106.31 159.691 106.696 159.622 107.084 159.571C107.592 159.506 108.003 159.457 108.318 159.424C108.637 159.388 108.869 159.328 109.014 159.245C109.163 159.162 109.237 159.017 109.237 158.81V158.766C109.237 158.23 109.09 157.813 108.797 157.516C108.507 157.219 108.066 157.07 107.476 157.07C106.863 157.07 106.383 157.204 106.035 157.472C105.687 157.741 105.442 158.027 105.301 158.331L104.083 157.897C104.3 157.389 104.59 156.994 104.953 156.711C105.319 156.425 105.718 156.226 106.149 156.113C106.584 155.997 107.012 155.939 107.432 155.939C107.7 155.939 108.008 155.972 108.356 156.037C108.708 156.099 109.047 156.227 109.373 156.423C109.703 156.619 109.977 156.914 110.194 157.309C110.412 157.704 110.52 158.234 110.52 158.897V164.399H109.237V163.268H109.172C109.085 163.45 108.94 163.643 108.737 163.85C108.534 164.057 108.264 164.232 107.927 164.377C107.59 164.522 107.178 164.595 106.693 164.595ZM106.888 163.442C107.396 163.442 107.823 163.343 108.171 163.143C108.523 162.944 108.788 162.687 108.965 162.371C109.147 162.056 109.237 161.724 109.237 161.376V160.202C109.183 160.267 109.063 160.327 108.878 160.381C108.697 160.432 108.487 160.477 108.248 160.517C108.012 160.553 107.782 160.586 107.557 160.615C107.336 160.64 107.157 160.662 107.019 160.68C106.685 160.724 106.374 160.794 106.084 160.892C105.797 160.987 105.565 161.13 105.388 161.322C105.214 161.51 105.127 161.768 105.127 162.094C105.127 162.54 105.292 162.877 105.622 163.105C105.955 163.33 106.377 163.442 106.888 163.442ZM116.494 156.048V157.135H112.166V156.048H116.494ZM113.428 154.047H114.711V162.007C114.711 162.369 114.763 162.641 114.868 162.822C114.977 163 115.115 163.12 115.282 163.181C115.452 163.239 115.631 163.268 115.82 163.268C115.961 163.268 116.077 163.261 116.168 163.247C116.259 163.228 116.331 163.214 116.385 163.203L116.646 164.356C116.559 164.388 116.438 164.421 116.282 164.454C116.126 164.49 115.929 164.508 115.689 164.508C115.327 164.508 114.972 164.43 114.624 164.274C114.279 164.118 113.993 163.881 113.765 163.562C113.54 163.243 113.428 162.841 113.428 162.355V154.047ZM121.836 164.573C121.031 164.573 120.337 164.396 119.754 164.04C119.174 163.681 118.726 163.181 118.411 162.54C118.099 161.895 117.943 161.144 117.943 160.289C117.943 159.433 118.099 158.679 118.411 158.027C118.726 157.371 119.165 156.86 119.726 156.494C120.292 156.124 120.952 155.939 121.706 155.939C122.14 155.939 122.57 156.012 122.994 156.157C123.418 156.302 123.804 156.537 124.152 156.863C124.5 157.186 124.777 157.614 124.984 158.147C125.191 158.679 125.294 159.336 125.294 160.115V160.659H118.857V159.549H123.989C123.989 159.078 123.895 158.658 123.706 158.288C123.521 157.918 123.257 157.626 122.913 157.413C122.572 157.199 122.169 157.092 121.706 157.092C121.194 157.092 120.752 157.219 120.379 157.472C120.009 157.723 119.725 158.049 119.525 158.451C119.326 158.853 119.226 159.285 119.226 159.745V160.485C119.226 161.115 119.335 161.65 119.552 162.088C119.774 162.523 120.08 162.855 120.471 163.083C120.863 163.308 121.318 163.421 121.836 163.421C122.173 163.421 122.478 163.373 122.749 163.279C123.025 163.181 123.262 163.036 123.462 162.844C123.661 162.648 123.815 162.406 123.924 162.116L125.163 162.464C125.033 162.884 124.814 163.254 124.506 163.573C124.197 163.888 123.817 164.135 123.364 164.312C122.911 164.486 122.401 164.573 121.836 164.573Z" fill="white"/>
<path d="M195.723 130.127L193.179 121.776H194.527L196.332 128.17H196.419L198.202 121.776H199.572L201.334 128.148H201.421L203.226 121.776H204.575L202.03 130.127H200.769L198.942 123.711H198.811L196.984 130.127H195.723ZM206.271 130.127V121.776H207.554V130.127H206.271ZM206.923 120.384C206.673 120.384 206.458 120.299 206.276 120.128C206.099 119.958 206.01 119.753 206.01 119.514C206.01 119.275 206.099 119.07 206.276 118.9C206.458 118.729 206.673 118.644 206.923 118.644C207.173 118.644 207.387 118.729 207.565 118.9C207.746 119.07 207.837 119.275 207.837 119.514C207.837 119.753 207.746 119.958 207.565 120.128C207.387 120.299 207.173 120.384 206.923 120.384ZM211.187 125.103V130.127H209.904V121.776H211.144V123.081H211.253C211.448 122.657 211.745 122.316 212.144 122.058C212.543 121.797 213.058 121.667 213.688 121.667C214.254 121.667 214.749 121.783 215.173 122.015C215.597 122.243 215.927 122.591 216.162 123.059C216.398 123.523 216.516 124.11 216.516 124.82V130.127H215.232V124.907C215.232 124.251 215.062 123.74 214.721 123.374C214.381 123.004 213.913 122.82 213.319 122.82C212.909 122.82 212.543 122.908 212.22 123.086C211.901 123.264 211.649 123.523 211.465 123.864C211.28 124.204 211.187 124.617 211.187 125.103ZM218.86 130.127V121.776H220.143V130.127H218.86ZM219.513 120.384C219.263 120.384 219.047 120.299 218.866 120.128C218.688 119.958 218.599 119.753 218.599 119.514C218.599 119.275 218.688 119.07 218.866 118.9C219.047 118.729 219.263 118.644 219.513 118.644C219.763 118.644 219.977 118.729 220.154 118.9C220.335 119.07 220.426 119.275 220.426 119.514C220.426 119.753 220.335 119.958 220.154 120.128C219.977 120.299 219.763 120.384 219.513 120.384ZM223.777 125.103V130.127H222.494V121.776H223.733V123.081H223.842C224.038 122.657 224.335 122.316 224.734 122.058C225.132 121.797 225.647 121.667 226.278 121.667C226.843 121.667 227.338 121.783 227.762 122.015C228.186 122.243 228.516 122.591 228.751 123.059C228.987 123.523 229.105 124.11 229.105 124.82V130.127H227.822V124.907C227.822 124.251 227.651 123.74 227.311 123.374C226.97 123.004 226.502 122.82 225.908 122.82C225.498 122.82 225.132 122.908 224.81 123.086C224.491 123.264 224.239 123.523 224.054 123.864C223.869 124.204 223.777 124.617 223.777 125.103ZM234.821 133.433C234.201 133.433 233.668 133.353 233.222 133.193C232.776 133.038 232.405 132.831 232.107 132.574C231.814 132.32 231.58 132.048 231.406 131.758L232.428 131.04C232.544 131.193 232.691 131.367 232.869 131.562C233.046 131.762 233.289 131.934 233.597 132.079C233.909 132.227 234.317 132.302 234.821 132.302C235.495 132.302 236.051 132.139 236.49 131.812C236.928 131.486 237.148 130.975 237.148 130.279V128.583H237.039C236.945 128.735 236.81 128.924 236.636 129.148C236.466 129.369 236.22 129.567 235.897 129.741C235.578 129.911 235.147 129.996 234.603 129.996C233.929 129.996 233.324 129.837 232.787 129.518C232.254 129.199 231.832 128.735 231.52 128.126C231.212 127.517 231.058 126.778 231.058 125.908C231.058 125.052 231.209 124.308 231.509 123.673C231.81 123.035 232.229 122.542 232.765 122.194C233.302 121.843 233.922 121.667 234.625 121.667C235.169 121.667 235.6 121.758 235.919 121.939C236.241 122.116 236.488 122.319 236.658 122.548C236.832 122.773 236.966 122.957 237.061 123.102H237.191V121.776H238.431V130.366C238.431 131.084 238.268 131.667 237.941 132.117C237.619 132.57 237.184 132.902 236.636 133.112C236.093 133.326 235.487 133.433 234.821 133.433ZM234.777 128.844C235.292 128.844 235.727 128.726 236.082 128.49C236.437 128.255 236.707 127.916 236.892 127.474C237.077 127.031 237.169 126.502 237.169 125.886C237.169 125.284 237.079 124.753 236.897 124.293C236.716 123.833 236.448 123.472 236.093 123.211C235.738 122.95 235.299 122.82 234.777 122.82C234.233 122.82 233.78 122.957 233.418 123.233C233.059 123.508 232.789 123.878 232.608 124.342C232.43 124.806 232.341 125.321 232.341 125.886C232.341 126.466 232.432 126.979 232.613 127.425C232.798 127.867 233.07 128.215 233.429 128.469C233.791 128.719 234.241 128.844 234.777 128.844ZM196.901 141.103V146.127H195.618V137.776H196.857V139.081H196.966C197.162 138.657 197.459 138.316 197.858 138.058C198.257 137.797 198.771 137.667 199.402 137.667C199.967 137.667 200.462 137.783 200.886 138.015C201.31 138.243 201.64 138.591 201.876 139.059C202.111 139.523 202.229 140.11 202.229 140.82V146.127H200.946V140.907C200.946 140.251 200.776 139.74 200.435 139.374C200.094 139.004 199.627 138.82 199.032 138.82C198.623 138.82 198.257 138.908 197.934 139.086C197.615 139.264 197.363 139.523 197.178 139.864C196.993 140.204 196.901 140.617 196.901 141.103ZM209.837 142.713V137.776H211.12V146.127H209.837V144.713H209.75C209.554 145.137 209.25 145.498 208.836 145.795C208.423 146.089 207.901 146.236 207.271 146.236C206.749 146.236 206.285 146.122 205.879 145.893C205.473 145.661 205.154 145.313 204.922 144.849C204.69 144.382 204.574 143.793 204.574 143.082V137.776H205.857V142.995C205.857 143.604 206.027 144.09 206.368 144.452C206.712 144.815 207.151 144.996 207.684 144.996C208.003 144.996 208.327 144.915 208.657 144.751C208.99 144.588 209.27 144.338 209.494 144.001C209.723 143.664 209.837 143.234 209.837 142.713ZM213.47 146.127V137.776H214.71V139.081H214.819C214.992 138.635 215.273 138.289 215.661 138.042C216.049 137.792 216.515 137.667 217.059 137.667C217.609 137.667 218.068 137.792 218.434 138.042C218.804 138.289 219.092 138.635 219.299 139.081H219.386C219.599 138.649 219.92 138.307 220.348 138.053C220.776 137.796 221.289 137.667 221.887 137.667C222.633 137.667 223.244 137.901 223.719 138.368C224.194 138.832 224.431 139.555 224.431 140.538V146.127H223.148V140.538C223.148 139.922 222.979 139.481 222.642 139.217C222.305 138.952 221.908 138.82 221.452 138.82C220.864 138.82 220.41 138.997 220.087 139.352C219.764 139.704 219.603 140.15 219.603 140.69V146.127H218.298V140.407C218.298 139.932 218.144 139.55 217.836 139.26C217.528 138.966 217.131 138.82 216.645 138.82C216.312 138.82 216 138.908 215.71 139.086C215.424 139.264 215.192 139.51 215.014 139.825C214.84 140.137 214.753 140.498 214.753 140.907V146.127H213.47ZM232.693 139.646L231.54 139.972C231.467 139.78 231.361 139.593 231.219 139.412C231.081 139.227 230.893 139.075 230.654 138.956C230.415 138.836 230.108 138.776 229.735 138.776C229.224 138.776 228.798 138.894 228.457 139.13C228.12 139.362 227.952 139.657 227.952 140.016C227.952 140.335 228.068 140.587 228.3 140.772C228.532 140.956 228.894 141.11 229.387 141.234L230.627 141.538C231.373 141.719 231.93 141.997 232.296 142.37C232.662 142.74 232.845 143.216 232.845 143.8C232.845 144.278 232.707 144.706 232.432 145.083C232.16 145.46 231.779 145.757 231.29 145.975C230.801 146.192 230.231 146.301 229.583 146.301C228.731 146.301 228.026 146.116 227.468 145.746C226.909 145.377 226.556 144.837 226.407 144.126L227.625 143.822C227.741 144.271 227.961 144.608 228.283 144.833C228.609 145.058 229.035 145.17 229.561 145.17C230.159 145.17 230.634 145.043 230.985 144.789C231.341 144.532 231.518 144.224 231.518 143.865C231.518 143.575 231.417 143.332 231.214 143.137C231.011 142.937 230.699 142.789 230.279 142.691L228.887 142.365C228.122 142.183 227.56 141.902 227.201 141.522C226.846 141.138 226.668 140.657 226.668 140.081C226.668 139.61 226.801 139.193 227.065 138.831C227.334 138.468 227.698 138.183 228.158 137.977C228.622 137.77 229.148 137.667 229.735 137.667C230.561 137.667 231.21 137.848 231.681 138.211C232.156 138.573 232.493 139.052 232.693 139.646ZM235.712 146.214C235.443 146.214 235.213 146.118 235.021 145.926C234.829 145.734 234.733 145.504 234.733 145.235C234.733 144.967 234.829 144.737 235.021 144.545C235.213 144.353 235.443 144.257 235.712 144.257C235.98 144.257 236.21 144.353 236.402 144.545C236.594 144.737 236.69 144.967 236.69 145.235C236.69 145.413 236.645 145.576 236.554 145.725C236.467 145.873 236.349 145.993 236.201 146.083C236.056 146.17 235.893 146.214 235.712 146.214Z" fill="white"/>
<path d="M161.772 191.677L159.227 183.326H160.576L162.381 189.72H162.468L164.251 183.326H165.621L167.383 189.698H167.47L169.275 183.326H170.623L168.079 191.677H166.817L164.991 185.262H164.86L163.033 191.677H161.772ZM175.537 191.851C174.732 191.851 174.038 191.674 173.455 191.318C172.875 190.96 172.427 190.459 172.112 189.818C171.8 189.173 171.644 188.422 171.644 187.567C171.644 186.711 171.8 185.958 172.112 185.305C172.427 184.649 172.866 184.138 173.427 183.772C173.993 183.402 174.653 183.217 175.407 183.217C175.842 183.217 176.271 183.29 176.695 183.435C177.119 183.58 177.505 183.815 177.853 184.142C178.201 184.464 178.478 184.892 178.685 185.425C178.892 185.958 178.995 186.614 178.995 187.393V187.937H172.558V186.827H177.69C177.69 186.356 177.596 185.936 177.407 185.566C177.223 185.196 176.958 184.905 176.614 184.691C176.273 184.477 175.871 184.37 175.407 184.37C174.895 184.37 174.453 184.497 174.08 184.751C173.71 185.001 173.426 185.327 173.226 185.729C173.027 186.132 172.927 186.563 172.927 187.023V187.763C172.927 188.393 173.036 188.928 173.254 189.367C173.475 189.801 173.781 190.133 174.172 190.361C174.564 190.586 175.019 190.699 175.537 190.699C175.874 190.699 176.179 190.651 176.45 190.557C176.726 190.459 176.963 190.314 177.163 190.122C177.362 189.927 177.516 189.684 177.625 189.394L178.864 189.742C178.734 190.162 178.515 190.532 178.207 190.851C177.899 191.166 177.518 191.413 177.065 191.59C176.612 191.764 176.102 191.851 175.537 191.851ZM184.448 191.851C183.644 191.851 182.949 191.674 182.366 191.318C181.786 190.96 181.338 190.459 181.023 189.818C180.711 189.173 180.555 188.422 180.555 187.567C180.555 186.711 180.711 185.958 181.023 185.305C181.338 184.649 181.777 184.138 182.339 183.772C182.904 183.402 183.564 183.217 184.318 183.217C184.753 183.217 185.182 183.29 185.606 183.435C186.03 183.58 186.416 183.815 186.764 184.142C187.112 184.464 187.39 184.892 187.596 185.425C187.803 185.958 187.906 186.614 187.906 187.393V187.937H181.469V186.827H186.601C186.601 186.356 186.507 185.936 186.319 185.566C186.134 185.196 185.869 184.905 185.525 184.691C185.184 184.477 184.782 184.37 184.318 184.37C183.807 184.37 183.365 184.497 182.991 184.751C182.621 185.001 182.337 185.327 182.138 185.729C181.938 186.132 181.839 186.563 181.839 187.023V187.763C181.839 188.393 181.947 188.928 182.165 189.367C182.386 189.801 182.692 190.133 183.084 190.361C183.475 190.586 183.93 190.699 184.448 190.699C184.785 190.699 185.09 190.651 185.362 190.557C185.637 190.459 185.875 190.314 186.074 190.122C186.273 189.927 186.427 189.684 186.536 189.394L187.776 189.742C187.645 190.162 187.426 190.532 187.118 190.851C186.81 191.166 186.429 191.413 185.976 191.59C185.523 191.764 185.014 191.851 184.448 191.851ZM191.054 188.633L191.032 187.045H191.293L194.947 183.326H196.535L192.642 187.262H192.533L191.054 188.633ZM189.858 191.677V180.542H191.141V191.677H189.858ZM195.165 191.677L191.902 187.545L192.816 186.653L196.796 191.677H195.165ZM164.693 207.851C163.997 207.851 163.383 207.675 162.85 207.324C162.317 206.969 161.9 206.468 161.599 205.823C161.298 205.174 161.148 204.408 161.148 203.523C161.148 202.646 161.298 201.885 161.599 201.24C161.9 200.595 162.319 200.096 162.855 199.745C163.392 199.393 164.012 199.217 164.715 199.217C165.258 199.217 165.688 199.308 166.003 199.489C166.322 199.667 166.565 199.87 166.732 200.098C166.902 200.323 167.034 200.508 167.129 200.653H167.237V196.542H168.521V207.677H167.281V206.394H167.129C167.034 206.546 166.9 206.738 166.726 206.97C166.552 207.199 166.304 207.404 165.982 207.585C165.659 207.762 165.229 207.851 164.693 207.851ZM164.867 206.699C165.382 206.699 165.817 206.564 166.172 206.296C166.527 206.024 166.797 205.649 166.982 205.171C167.167 204.689 167.259 204.132 167.259 203.502C167.259 202.878 167.169 202.333 166.987 201.865C166.806 201.394 166.538 201.028 166.183 200.767C165.827 200.502 165.389 200.37 164.867 200.37C164.323 200.37 163.87 200.509 163.508 200.789C163.149 201.064 162.879 201.439 162.698 201.914C162.52 202.385 162.431 202.914 162.431 203.502C162.431 204.096 162.522 204.636 162.703 205.122C162.888 205.604 163.16 205.988 163.519 206.275C163.881 206.557 164.33 206.699 164.867 206.699ZM173.506 207.873C172.977 207.873 172.497 207.773 172.066 207.574C171.634 207.371 171.292 207.079 171.038 206.699C170.784 206.314 170.657 205.85 170.657 205.307C170.657 204.828 170.752 204.44 170.94 204.143C171.129 203.842 171.38 203.607 171.696 203.436C172.011 203.266 172.359 203.139 172.74 203.056C173.124 202.969 173.51 202.9 173.898 202.849C174.405 202.784 174.817 202.735 175.132 202.702C175.451 202.666 175.683 202.606 175.828 202.523C175.977 202.44 176.051 202.295 176.051 202.088V202.045C176.051 201.508 175.904 201.091 175.61 200.794C175.32 200.497 174.88 200.348 174.289 200.348C173.677 200.348 173.196 200.482 172.848 200.751C172.5 201.019 172.256 201.305 172.114 201.61L170.897 201.175C171.114 200.667 171.404 200.272 171.766 199.989C172.133 199.703 172.531 199.504 172.963 199.391C173.398 199.275 173.825 199.217 174.246 199.217C174.514 199.217 174.822 199.25 175.17 199.315C175.522 199.377 175.861 199.505 176.187 199.701C176.517 199.897 176.79 200.192 177.008 200.587C177.225 200.982 177.334 201.512 177.334 202.175V207.677H176.051V206.546H175.986C175.899 206.728 175.754 206.922 175.551 207.128C175.348 207.335 175.078 207.511 174.741 207.655C174.403 207.8 173.992 207.873 173.506 207.873ZM173.702 206.72C174.21 206.72 174.637 206.621 174.985 206.421C175.337 206.222 175.601 205.965 175.779 205.649C175.96 205.334 176.051 205.002 176.051 204.654V203.48C175.996 203.545 175.877 203.605 175.692 203.659C175.511 203.71 175.301 203.755 175.061 203.795C174.826 203.831 174.596 203.864 174.371 203.893C174.15 203.918 173.97 203.94 173.833 203.958C173.499 204.002 173.187 204.073 172.897 204.17C172.611 204.265 172.379 204.408 172.201 204.6C172.027 204.788 171.94 205.046 171.94 205.372C171.94 205.818 172.105 206.155 172.435 206.383C172.769 206.608 173.191 206.72 173.702 206.72ZM182.133 207.873C181.604 207.873 181.124 207.773 180.693 207.574C180.261 207.371 179.919 207.079 179.665 206.699C179.411 206.314 179.284 205.85 179.284 205.307C179.284 204.828 179.379 204.44 179.567 204.143C179.756 203.842 180.008 203.607 180.323 203.436C180.638 203.266 180.986 203.139 181.367 203.056C181.751 202.969 182.137 202.9 182.525 202.849C183.032 202.784 183.444 202.735 183.759 202.702C184.078 202.666 184.31 202.606 184.455 202.523C184.604 202.44 184.678 202.295 184.678 202.088V202.045C184.678 201.508 184.531 201.091 184.238 200.794C183.948 200.497 183.507 200.348 182.916 200.348C182.304 200.348 181.824 200.482 181.476 200.751C181.128 201.019 180.883 201.305 180.742 201.61L179.524 201.175C179.741 200.667 180.031 200.272 180.394 199.989C180.76 199.703 181.158 199.504 181.59 199.391C182.025 199.275 182.452 199.217 182.873 199.217C183.141 199.217 183.449 199.25 183.797 199.315C184.149 199.377 184.488 199.505 184.814 199.701C185.144 199.897 185.417 200.192 185.635 200.587C185.852 200.982 185.961 201.512 185.961 202.175V207.677H184.678V206.546H184.613C184.526 206.728 184.381 206.922 184.178 207.128C183.975 207.335 183.705 207.511 183.368 207.655C183.031 207.8 182.619 207.873 182.133 207.873ZM182.329 206.72C182.837 206.72 183.264 206.621 183.612 206.421C183.964 206.222 184.229 205.965 184.406 205.649C184.587 205.334 184.678 205.002 184.678 204.654V203.48C184.624 203.545 184.504 203.605 184.319 203.659C184.138 203.71 183.928 203.755 183.688 203.795C183.453 203.831 183.223 203.864 182.998 203.893C182.777 203.918 182.597 203.94 182.46 203.958C182.126 204.002 181.815 204.073 181.525 204.17C181.238 204.265 181.006 204.408 180.829 204.6C180.655 204.788 180.568 205.046 180.568 205.372C180.568 205.818 180.733 206.155 181.062 206.383C181.396 206.608 181.818 206.72 182.329 206.72ZM188.831 210.809C188.613 210.809 188.419 210.791 188.249 210.755C188.078 210.722 187.961 210.689 187.895 210.657L188.222 209.526C188.533 209.606 188.809 209.635 189.048 209.613C189.287 209.591 189.499 209.484 189.684 209.292C189.873 209.104 190.045 208.797 190.201 208.373L190.44 207.721L187.352 199.326H188.744L191.049 205.981H191.136L193.441 199.326H194.833L191.288 208.895C191.129 209.326 190.931 209.683 190.695 209.966C190.46 210.253 190.186 210.465 189.874 210.602C189.566 210.74 189.218 210.809 188.831 210.809Z" fill="white"/>
<path d="M133.294 84.7059V85.7933H128.792V84.7059H133.294ZM130.14 93.0571V83.5533C130.14 83.0748 130.252 82.6761 130.477 82.3571C130.702 82.0381 130.994 81.7989 131.353 81.6394C131.711 81.4799 132.09 81.4002 132.489 81.4002C132.804 81.4002 133.062 81.4256 133.261 81.4763C133.46 81.5271 133.609 81.5742 133.707 81.6177L133.337 82.7268C133.272 82.7051 133.181 82.6779 133.065 82.6453C132.953 82.6127 132.804 82.5963 132.619 82.5963C132.195 82.5963 131.889 82.7033 131.701 82.9171C131.516 83.131 131.423 83.4445 131.423 83.8577V93.0571H130.14ZM137.31 93.2529C136.781 93.2529 136.301 93.1532 135.869 92.9538C135.438 92.7508 135.095 92.4591 134.842 92.0785C134.588 91.6943 134.461 91.2303 134.461 90.6866C134.461 90.2081 134.555 89.8203 134.744 89.5231C134.932 89.2222 135.184 88.9866 135.5 88.8163C135.815 88.6459 136.163 88.519 136.544 88.4357C136.928 88.3487 137.314 88.2798 137.702 88.2291C138.209 88.1638 138.62 88.1149 138.936 88.0823C139.255 88.046 139.487 87.9862 139.632 87.9029C139.78 87.8195 139.855 87.6745 139.855 87.4679V87.4244C139.855 86.8879 139.708 86.4711 139.414 86.1739C139.124 85.8767 138.684 85.7281 138.093 85.7281C137.48 85.7281 137 85.8622 136.652 86.1304C136.304 86.3986 136.06 86.685 135.918 86.9894L134.7 86.5545C134.918 86.047 135.208 85.6519 135.57 85.3692C135.936 85.0829 136.335 84.8835 136.766 84.7711C137.201 84.6552 137.629 84.5972 138.05 84.5972C138.318 84.5972 138.626 84.6298 138.974 84.695C139.325 84.7566 139.664 84.8853 139.991 85.0811C140.32 85.2768 140.594 85.5722 140.812 85.9673C141.029 86.3624 141.138 86.8916 141.138 87.5549V93.0571H139.855V91.9262H139.789C139.702 92.1075 139.557 92.3014 139.354 92.508C139.151 92.7146 138.881 92.8904 138.544 93.0354C138.207 93.1804 137.796 93.2529 137.31 93.2529ZM137.506 92.1002C138.013 92.1002 138.441 92.0005 138.789 91.8012C139.141 91.6018 139.405 91.3445 139.583 91.0291C139.764 90.7138 139.855 90.3821 139.855 90.0342V88.8598C139.8 88.925 139.681 88.9848 139.496 89.0392C139.315 89.0899 139.104 89.1352 138.865 89.1751C138.63 89.2114 138.399 89.244 138.175 89.273C137.954 89.2984 137.774 89.3201 137.636 89.3382C137.303 89.3817 136.991 89.4524 136.701 89.5503C136.415 89.6445 136.183 89.7877 136.005 89.9798C135.831 90.1683 135.744 90.4256 135.744 90.7518C135.744 91.1977 135.909 91.5348 136.239 91.7631C136.573 91.9879 136.995 92.1002 137.506 92.1002ZM144.763 81.9222V93.0571H143.48V81.9222H144.763ZM148.396 81.9222V93.0571H147.113V81.9222H148.396ZM154.139 93.2311C153.385 93.2311 152.724 93.0517 152.155 92.6929C151.589 92.334 151.147 91.832 150.828 91.1868C150.513 90.5416 150.355 89.7877 150.355 88.925C150.355 88.0551 150.513 87.2957 150.828 86.6469C151.147 85.9981 151.589 85.4943 152.155 85.1354C152.724 84.7766 153.385 84.5972 154.139 84.5972C154.893 84.5972 155.553 84.7766 156.118 85.1354C156.687 85.4943 157.129 85.9981 157.445 86.6469C157.764 87.2957 157.923 88.0551 157.923 88.925C157.923 89.7877 157.764 90.5416 157.445 91.1868C157.129 91.832 156.687 92.334 156.118 92.6929C155.553 93.0517 154.893 93.2311 154.139 93.2311ZM154.139 92.0785C154.712 92.0785 155.183 91.9317 155.553 91.6381C155.922 91.3445 156.196 90.9584 156.374 90.48C156.551 90.0015 156.64 89.4832 156.64 88.925C156.64 88.3668 156.551 87.8467 156.374 87.3646C156.196 86.8825 155.922 86.4929 155.553 86.1956C155.183 85.8984 154.712 85.7498 154.139 85.7498C153.566 85.7498 153.095 85.8984 152.725 86.1956C152.356 86.4929 152.082 86.8825 151.904 87.3646C151.727 87.8467 151.638 88.3668 151.638 88.925C151.638 89.4832 151.727 90.0015 151.904 90.48C152.082 90.9584 152.356 91.3445 152.725 91.6381C153.095 91.9317 153.566 92.0785 154.139 92.0785ZM165.145 89.6427V84.7059H166.428V93.0571H165.145V91.6435H165.058C164.862 92.0676 164.558 92.4282 164.144 92.7255C163.731 93.0191 163.209 93.1659 162.579 93.1659C162.057 93.1659 161.593 93.0517 161.187 92.8233C160.781 92.5914 160.462 92.2434 160.23 91.7794C159.998 91.3119 159.882 90.7228 159.882 90.0124V84.7059H161.165V89.9254C161.165 90.5344 161.335 91.0201 161.676 91.3825C162.02 91.745 162.459 91.9262 162.992 91.9262C163.311 91.9262 163.635 91.8447 163.965 91.6816C164.298 91.5185 164.578 91.2684 164.802 90.9313C165.031 90.5942 165.145 90.1646 165.145 89.6427ZM172.41 84.7059V85.7933H168.082V84.7059H172.41ZM169.344 82.7051H170.627V90.6648C170.627 91.0273 170.679 91.2992 170.784 91.4804C170.893 91.658 171.031 91.7776 171.198 91.8392C171.368 91.8972 171.547 91.9262 171.736 91.9262C171.877 91.9262 171.993 91.919 172.084 91.9045C172.174 91.8864 172.247 91.8719 172.301 91.861L172.562 93.0136C172.475 93.0463 172.354 93.0789 172.198 93.1115C172.042 93.1477 171.845 93.1659 171.605 93.1659C171.243 93.1659 170.888 93.0879 170.54 92.9321C170.195 92.7762 169.909 92.5388 169.681 92.2198C169.456 91.9009 169.344 91.4985 169.344 91.0128V82.7051ZM136.003 109.231C135.249 109.231 134.587 109.052 134.018 108.693C133.453 108.334 133.01 107.832 132.691 107.187C132.376 106.542 132.218 105.788 132.218 104.925C132.218 104.055 132.376 103.296 132.691 102.647C133.01 101.998 133.453 101.494 134.018 101.135C134.587 100.777 135.249 100.597 136.003 100.597C136.756 100.597 137.416 100.777 137.982 101.135C138.551 101.494 138.993 101.998 139.308 102.647C139.627 103.296 139.787 104.055 139.787 104.925C139.787 105.788 139.627 106.542 139.308 107.187C138.993 107.832 138.551 108.334 137.982 108.693C137.416 109.052 136.756 109.231 136.003 109.231ZM136.003 108.078C136.575 108.078 137.046 107.932 137.416 107.638C137.786 107.344 138.06 106.958 138.237 106.48C138.415 106.002 138.504 105.483 138.504 104.925C138.504 104.367 138.415 103.847 138.237 103.365C138.06 102.883 137.786 102.493 137.416 102.196C137.046 101.898 136.575 101.75 136.003 101.75C135.43 101.75 134.959 101.898 134.589 102.196C134.219 102.493 133.946 102.883 133.768 103.365C133.59 103.847 133.502 104.367 133.502 104.925C133.502 105.483 133.59 106.002 133.768 106.48C133.946 106.958 134.219 107.344 134.589 107.638C134.959 107.932 135.43 108.078 136.003 108.078ZM141.745 109.057V100.706H142.985V101.967H143.072C143.224 101.554 143.5 101.219 143.898 100.961C144.297 100.704 144.747 100.575 145.247 100.575C145.341 100.575 145.459 100.577 145.6 100.581C145.742 100.584 145.848 100.59 145.921 100.597V101.902C145.877 101.891 145.778 101.875 145.622 101.853C145.47 101.828 145.308 101.815 145.138 101.815C144.732 101.815 144.37 101.9 144.051 102.071C143.735 102.237 143.485 102.469 143.3 102.767C143.119 103.06 143.029 103.395 143.029 103.772V109.057H141.745ZM150.341 109.231C149.645 109.231 149.031 109.055 148.498 108.704C147.965 108.349 147.548 107.848 147.248 107.203C146.947 106.554 146.796 105.788 146.796 104.903C146.796 104.026 146.947 103.265 147.248 102.62C147.548 101.975 147.967 101.476 148.504 101.125C149.04 100.773 149.66 100.597 150.363 100.597C150.907 100.597 151.336 100.688 151.652 100.869C151.971 101.047 152.213 101.25 152.38 101.478C152.55 101.703 152.683 101.888 152.777 102.033H152.886V97.9222H154.169V109.057H152.929V107.774H152.777C152.683 107.926 152.549 108.118 152.375 108.35C152.201 108.579 151.952 108.783 151.63 108.965C151.307 109.142 150.878 109.231 150.341 109.231ZM150.515 108.078C151.03 108.078 151.465 107.944 151.82 107.676C152.175 107.404 152.445 107.029 152.63 106.551C152.815 106.069 152.908 105.512 152.908 104.882C152.908 104.258 152.817 103.713 152.636 103.245C152.454 102.774 152.186 102.408 151.831 102.147C151.476 101.882 151.037 101.75 150.515 101.75C149.972 101.75 149.518 101.889 149.156 102.168C148.797 102.444 148.527 102.819 148.346 103.294C148.168 103.765 148.079 104.294 148.079 104.882C148.079 105.476 148.17 106.016 148.351 106.502C148.536 106.984 148.808 107.368 149.167 107.654C149.529 107.937 149.979 108.078 150.515 108.078ZM160.199 109.231C159.394 109.231 158.7 109.054 158.116 108.698C157.536 108.339 157.089 107.839 156.773 107.198C156.462 106.552 156.306 105.802 156.306 104.947C156.306 104.091 156.462 103.337 156.773 102.685C157.089 102.029 157.527 101.518 158.089 101.152C158.654 100.782 159.314 100.597 160.068 100.597C160.503 100.597 160.933 100.67 161.357 100.815C161.781 100.96 162.167 101.195 162.515 101.521C162.863 101.844 163.14 102.272 163.347 102.805C163.553 103.337 163.656 103.993 163.656 104.773V105.316H157.219V104.207H162.352C162.352 103.736 162.257 103.316 162.069 102.946C161.884 102.576 161.619 102.284 161.275 102.071C160.934 101.857 160.532 101.75 160.068 101.75C159.557 101.75 159.115 101.877 158.741 102.13C158.372 102.38 158.087 102.707 157.888 103.109C157.688 103.511 157.589 103.943 157.589 104.403V105.142C157.589 105.773 157.698 106.308 157.915 106.746C158.136 107.181 158.442 107.513 158.834 107.741C159.225 107.966 159.68 108.078 160.199 108.078C160.536 108.078 160.84 108.031 161.112 107.937C161.387 107.839 161.625 107.694 161.824 107.502C162.024 107.306 162.178 107.064 162.286 106.774L163.526 107.122C163.395 107.542 163.176 107.912 162.868 108.231C162.56 108.546 162.179 108.793 161.726 108.97C161.273 109.144 160.764 109.231 160.199 109.231ZM165.608 109.057V100.706H166.848V101.967H166.935C167.087 101.554 167.363 101.219 167.761 100.961C168.16 100.704 168.61 100.575 169.11 100.575C169.204 100.575 169.322 100.577 169.463 100.581C169.605 100.584 169.711 100.59 169.784 100.597V101.902C169.74 101.891 169.641 101.875 169.485 101.853C169.333 101.828 169.171 101.815 169.001 101.815C168.595 101.815 168.233 101.9 167.914 102.071C167.598 102.237 167.348 102.469 167.163 102.767C166.982 103.06 166.891 103.395 166.891 103.772V109.057H165.608Z" fill="white"/>
<defs>
<radialGradient id="paint0_radial_59_172" cx="0" cy="0" r="1" gradientUnits="userSpaceOnUse" gradientTransform="translate(206.268 254.676) scale(14.828)">
<stop stop-color="white" stop-opacity="0.5"/>
<stop offset="0.05" stop-color="#ECE9FC" stop-opacity="0.55"/>
<stop offset="0.22" stop-color="#ADA1F4" stop-opacity="0.71"/>
<stop offset="0.4" stop-color="#7C68ED" stop-opacity="0.84"/>
<stop offset="0.59" stop-color="#5940E9" stop-opacity="0.93"/>
<stop offset="0.78" stop-color="#4428E6" stop-opacity="0.98"/>
<stop offset="1" stop-color="#3D20E5"/>
</radialGradient>
<radialGradient id="paint1_radial_59_172" cx="0" cy="0" r="1" gradientUnits="userSpaceOnUse" gradientTransform="translate(235.309 254.557) scale(14.6811 14.6811)">
<stop stop-color="white" stop-opacity="0.5"/>
<stop offset="0.05" stop-color="#ECE9FC" stop-opacity="0.55"/>
<stop offset="0.22" stop-color="#ADA1F4" stop-opacity="0.71"/>
<stop offset="0.4" stop-color="#7C68ED" stop-opacity="0.84"/>
<stop offset="0.59" stop-color="#5940E9" stop-opacity="0.93"/>
<stop offset="0.78" stop-color="#4428E6" stop-opacity="0.98"/>
<stop offset="1" stop-color="#3D20E5"/>
</radialGradient>
<radialGradient id="paint2_radial_59_172" cx="0" cy="0" r="1" gradientUnits="userSpaceOnUse" gradientTransform="translate(262.747 254.788) scale(15.0028 15.0028)">
<stop stop-color="white" stop-opacity="0.5"/>
<stop offset="0.05" stop-color="#ECE9FC" stop-opacity="0.55"/>
<stop offset="0.22" stop-color="#ADA1F4" stop-opacity="0.71"/>
<stop offset="0.4" stop-color="#7C68ED" stop-opacity="0.84"/>
<stop offset="0.59" stop-color="#5940E9" stop-opacity="0.93"/>
<stop offset="0.78" stop-color="#4428E6" stop-opacity="0.98"/>
<stop offset="1" stop-color="#3D20E5"/>
</radialGradient>
<radialGradient id="paint3_radial_59_172" cx="0" cy="0" r="1" gradientUnits="userSpaceOnUse" gradientTransform="translate(287.067 254.788) scale(15.0588 15.0588)">
<stop stop-color="white" stop-opacity="0.5"/>
<stop offset="0.05" stop-color="#ECE9FC" stop-opacity="0.55"/>
<stop offset="0.22" stop-color="#ADA1F4" stop-opacity="0.71"/>
<stop offset="0.4" stop-color="#7C68ED" stop-opacity="0.84"/>
<stop offset="0.59" stop-color="#5940E9" stop-opacity="0.93"/>
<stop offset="0.78" stop-color="#4428E6" stop-opacity="0.98"/>
<stop offset="1" stop-color="#3D20E5"/>
</radialGradient>
<linearGradient id="paint4_linear_59_172" x1="182.426" y1="133.305" x2="248.802" y2="133.305" gradientUnits="userSpaceOnUse">
<stop stop-color="#3D20E5"/>
<stop offset="1" stop-color="#00C650"/>
</linearGradient>
<linearGradient id="paint5_linear_59_172" x1="116.043" y1="94.6891" x2="182.426" y2="94.6891" gradientUnits="userSpaceOnUse">
<stop stop-color="#3D20E5"/>
<stop offset="1" stop-color="#00C650"/>
</linearGradient>
<linearGradient id="paint6_linear_59_172" x1="76.9517" y1="161.072" x2="143.335" y2="161.072" gradientUnits="userSpaceOnUse">
<stop stop-color="#3D20E5"/>
<stop offset="1" stop-color="#00C650"/>
</linearGradient>
<linearGradient id="paint7_linear_59_172" x1="143.335" y1="195.925" x2="209.718" y2="195.925" gradientUnits="userSpaceOnUse">
<stop stop-color="#3D20E5"/>
<stop offset="1" stop-color="#00C650"/>
</linearGradient>
</defs>
</svg>
