<svg width="41" height="41" viewBox="0 0 41 41" fill="none" xmlns="http://www.w3.org/2000/svg">
<path opacity="0.4" d="M20.5 40C31.2696 40 40 31.2696 40 20.5C40 9.73045 31.2696 1 20.5 1C9.73045 1 1 9.73045 1 20.5C1 31.2696 9.73045 40 20.5 40Z" fill="#F9F9F9" stroke="#3D20E5" stroke-width="1.01" stroke-miterlimit="10"/>
<path opacity="0.4" d="M20.5 38.29C30.3252 38.29 38.29 30.3251 38.29 20.5C38.29 10.6748 30.3252 2.70996 20.5 2.70996C10.6749 2.70996 2.71002 10.6748 2.71002 20.5C2.71002 30.3251 10.6749 38.29 20.5 38.29Z" fill="#3D20E5"/>
<path d="M7.28004 18.7C8.30729 18.7 9.14005 17.8672 9.14005 16.84C9.14005 15.8127 8.30729 14.98 7.28004 14.98C6.25279 14.98 5.42004 15.8127 5.42004 16.84C5.42004 17.8672 6.25279 18.7 7.28004 18.7Z" stroke="white" stroke-width="0.96" stroke-miterlimit="10"/>
<path d="M18.1001 24.8699C19.1273 24.8699 19.9601 24.0372 19.9601 23.0099C19.9601 21.9827 19.1273 21.1499 18.1001 21.1499C17.0728 21.1499 16.2401 21.9827 16.2401 23.0099C16.2401 24.0372 17.0728 24.8699 18.1001 24.8699Z" stroke="white" stroke-width="0.96" stroke-miterlimit="10"/>
<path d="M18.1001 35.0498C19.1273 35.0498 19.9601 34.2171 19.9601 33.1898C19.9601 32.1626 19.1273 31.3298 18.1001 31.3298C17.0728 31.3298 16.2401 32.1626 16.2401 33.1898C16.2401 34.2171 17.0728 35.0498 18.1001 35.0498Z" stroke="white" stroke-width="0.96" stroke-miterlimit="10"/>
<path d="M12.03 13.02C13.0573 13.02 13.89 12.1873 13.89 11.16C13.89 10.1328 13.0573 9.30005 12.03 9.30005C11.0028 9.30005 10.17 10.1328 10.17 11.16C10.17 12.1873 11.0028 13.02 12.03 13.02Z" stroke="white" stroke-width="0.96" stroke-miterlimit="10"/>
<path d="M15.21 7.83994C15.2041 7.46887 15.3087 7.10442 15.5105 6.79298C15.7123 6.48154 16.0022 6.23719 16.3434 6.09105C16.6845 5.9449 17.0614 5.90356 17.4261 5.97229C17.7908 6.04102 18.1268 6.21671 18.3913 6.477C18.6559 6.73729 18.837 7.07041 18.9116 7.43395C18.9862 7.79749 18.951 8.17501 18.8104 8.51846C18.6697 8.86191 18.4301 9.15575 18.122 9.36259C17.8138 9.56942 17.4511 9.67989 17.08 9.67994C16.5892 9.68 16.1181 9.48711 15.7682 9.14288C15.4184 8.79865 15.2179 8.33068 15.21 7.83994V7.83994Z" stroke="white" stroke-width="0.96" stroke-miterlimit="10"/>
<path d="M15.21 15.2899C15.21 14.9201 15.3197 14.5585 15.5252 14.251C15.7307 13.9435 16.0227 13.7038 16.3644 13.5623C16.7061 13.4207 17.0821 13.3837 17.4448 13.4559C17.8076 13.528 18.1408 13.7061 18.4023 13.9676C18.6638 14.2292 18.8419 14.5624 18.9141 14.9251C18.9862 15.2878 18.9492 15.6638 18.8077 16.0055C18.6661 16.3472 18.4265 16.6393 18.1189 16.8448C17.8114 17.0502 17.4499 17.1599 17.08 17.1599C16.5841 17.1599 16.1084 16.9629 15.7577 16.6122C15.407 16.2615 15.21 15.7859 15.21 15.2899Z" stroke="white" stroke-width="0.96" stroke-miterlimit="10"/>
<path d="M7.28004 25.97C8.30729 25.97 9.14005 25.1373 9.14005 24.11C9.14005 23.0828 8.30729 22.25 7.28004 22.25C6.25279 22.25 5.42004 23.0828 5.42004 24.11C5.42004 25.1373 6.25279 25.97 7.28004 25.97Z" stroke="white" stroke-width="0.96" stroke-miterlimit="10"/>
<path d="M13.02 32.3699C14.0473 32.3699 14.88 31.5372 14.88 30.5099C14.88 29.4827 14.0473 28.6499 13.02 28.6499C11.9928 28.6499 11.16 29.4827 11.16 30.5099C11.16 31.5372 11.9928 32.3699 13.02 32.3699Z" stroke="white" stroke-width="0.96" stroke-miterlimit="10"/>
<path d="M7.28003 18.71V22.24" stroke="white" stroke-width="0.96" stroke-miterlimit="10"/>
<path d="M9.19 24.6199L13.02 25.8999V28.6499" stroke="white" stroke-width="0.96" stroke-miterlimit="10"/>
<path d="M18.1 24.8699V31.3299" stroke="white" stroke-width="0.96" stroke-miterlimit="10"/>
<path d="M12.03 13.02V20.71L16.4 22.24" stroke="white" stroke-width="0.96" stroke-miterlimit="10"/>
<path d="M17.08 9.70996V13.43" stroke="white" stroke-width="0.96" stroke-miterlimit="10"/>
<path d="M33.72 26.01C34.7473 26.01 35.58 25.1773 35.58 24.15C35.58 23.1228 34.7473 22.29 33.72 22.29C32.6928 22.29 31.86 23.1228 31.86 24.15C31.86 25.1773 32.6928 26.01 33.72 26.01Z" stroke="white" stroke-width="0.96" stroke-miterlimit="10"/>
<path d="M22.9 19.8499C23.9273 19.8499 24.76 19.0171 24.76 17.9899C24.76 16.9626 23.9273 16.1299 22.9 16.1299C21.8728 16.1299 21.04 16.9626 21.04 17.9899C21.04 19.0171 21.8728 19.8499 22.9 19.8499Z" stroke="white" stroke-width="0.96" stroke-miterlimit="10"/>
<path d="M22.9 9.65995C23.9273 9.65995 24.76 8.8272 24.76 7.79995C24.76 6.7727 23.9273 5.93994 22.9 5.93994C21.8728 5.93994 21.04 6.7727 21.04 7.79995C21.04 8.8272 21.8728 9.65995 22.9 9.65995Z" stroke="white" stroke-width="0.96" stroke-miterlimit="10"/>
<path d="M28.97 31.69C29.9973 31.69 30.83 30.8572 30.83 29.83C30.83 28.8027 29.9973 27.97 28.97 27.97C27.9428 27.97 27.11 28.8027 27.11 29.83C27.11 30.8572 27.9428 31.69 28.97 31.69Z" stroke="white" stroke-width="0.96" stroke-miterlimit="10"/>
<path d="M23.92 35.01C24.9472 35.01 25.78 34.1773 25.78 33.15C25.78 32.1228 24.9472 31.29 23.92 31.29C22.8927 31.29 22.06 32.1228 22.06 33.15C22.06 34.1773 22.8927 35.01 23.92 35.01Z" stroke="white" stroke-width="0.96" stroke-miterlimit="10"/>
<path d="M23.92 27.5598C24.9472 27.5598 25.78 26.7271 25.78 25.6998C25.78 24.6726 24.9472 23.8398 23.92 23.8398C22.8927 23.8398 22.06 24.6726 22.06 25.6998C22.06 26.7271 22.8927 27.5598 23.92 27.5598Z" stroke="white" stroke-width="0.96" stroke-miterlimit="10"/>
<path d="M33.72 18.75C34.7473 18.75 35.58 17.9173 35.58 16.89C35.58 15.8628 34.7473 15.03 33.72 15.03C32.6928 15.03 31.86 15.8628 31.86 16.89C31.86 17.9173 32.6928 18.75 33.72 18.75Z" stroke="white" stroke-width="0.96" stroke-miterlimit="10"/>
<path d="M27.98 12.3399C29.0073 12.3399 29.84 11.5071 29.84 10.4799C29.84 9.45262 29.0073 8.61987 27.98 8.61987C26.9528 8.61987 26.1201 9.45262 26.1201 10.4799C26.1201 11.5071 26.9528 12.3399 27.98 12.3399Z" stroke="white" stroke-width="0.96" stroke-miterlimit="10"/>
<path d="M33.72 22.29V18.75" stroke="white" stroke-width="0.96" stroke-miterlimit="10"/>
<path d="M31.81 16.3699L27.98 15.0999V12.3499" stroke="white" stroke-width="0.96" stroke-miterlimit="10"/>
<path d="M22.9 16.1199V9.65991" stroke="white" stroke-width="0.96" stroke-miterlimit="10"/>
<path d="M28.97 27.97V20.29L24.6 18.75" stroke="white" stroke-width="0.96" stroke-miterlimit="10"/>
<path d="M23.92 31.2898V27.5698" stroke="white" stroke-width="0.96" stroke-miterlimit="10"/>
</svg>
