<svg width="142" height="45" viewBox="0 0 142 45" fill="none" xmlns="http://www.w3.org/2000/svg">
<rect width="142" height="45" rx="10" fill="url(#paint0_linear_56_2)"/>
<path d="M39.89 20.09C39.542 19.358 39.038 18.794 38.378 18.398C37.718 17.99 36.95 17.786 36.074 17.786C35.198 17.786 34.406 17.99 33.698 18.398C33.002 18.794 32.45 19.37 32.042 20.126C31.646 20.87 31.448 21.734 31.448 22.718C31.448 23.702 31.646 24.566 32.042 25.31C32.45 26.054 33.002 26.63 33.698 27.038C34.406 27.434 35.198 27.632 36.074 27.632C37.298 27.632 38.306 27.266 39.098 26.534C39.89 25.802 40.352 24.812 40.484 23.564H35.48V22.232H42.23V23.492C42.134 24.524 41.81 25.472 41.258 26.336C40.706 27.188 39.98 27.866 39.08 28.37C38.18 28.862 37.178 29.108 36.074 29.108C34.91 29.108 33.848 28.838 32.888 28.298C31.928 27.746 31.166 26.984 30.602 26.012C30.05 25.04 29.774 23.942 29.774 22.718C29.774 21.494 30.05 20.396 30.602 19.424C31.166 18.44 31.928 17.678 32.888 17.138C33.848 16.586 34.91 16.31 36.074 16.31C37.406 16.31 38.582 16.64 39.602 17.3C40.634 17.96 41.384 18.89 41.852 20.09H39.89ZM53.3958 23.69C53.3958 24.002 53.3778 24.332 53.3418 24.68H45.4578C45.5178 25.652 45.8478 26.414 46.4478 26.966C47.0598 27.506 47.7978 27.776 48.6618 27.776C49.3698 27.776 49.9578 27.614 50.4258 27.29C50.9058 26.954 51.2418 26.51 51.4338 25.958H53.1978C52.9338 26.906 52.4058 27.68 51.6138 28.28C50.8218 28.868 49.8378 29.162 48.6618 29.162C47.7258 29.162 46.8858 28.952 46.1418 28.532C45.4098 28.112 44.8338 27.518 44.4138 26.75C43.9938 25.97 43.7838 25.07 43.7838 24.05C43.7838 23.03 43.9878 22.136 44.3958 21.368C44.8038 20.6 45.3738 20.012 46.1058 19.604C46.8498 19.184 47.7018 18.974 48.6618 18.974C49.5978 18.974 50.4258 19.178 51.1458 19.586C51.8658 19.994 52.4178 20.558 52.8018 21.278C53.1978 21.986 53.3958 22.79 53.3958 23.69ZM51.7038 23.348C51.7038 22.724 51.5658 22.19 51.2898 21.746C51.0138 21.29 50.6358 20.948 50.1558 20.72C49.6878 20.48 49.1658 20.36 48.5898 20.36C47.7618 20.36 47.0538 20.624 46.4658 21.152C45.8898 21.68 45.5598 22.412 45.4758 23.348H51.7038ZM57.5559 20.486V26.3C57.5559 26.78 57.6579 27.122 57.8619 27.326C58.0659 27.518 58.4199 27.614 58.9239 27.614H60.1299V29H58.6539C57.7419 29 57.0579 28.79 56.6019 28.37C56.1459 27.95 55.9179 27.26 55.9179 26.3V20.486H54.6399V19.136H55.9179V16.652H57.5559V19.136H60.1299V20.486H57.5559ZM70.8913 29.126C70.0633 29.126 69.3193 28.982 68.6593 28.694C68.0113 28.394 67.5013 27.986 67.1293 27.47C66.7573 26.942 66.5653 26.336 66.5533 25.652H68.2993C68.3593 26.24 68.5993 26.738 69.0193 27.146C69.4513 27.542 70.0753 27.74 70.8913 27.74C71.6713 27.74 72.2833 27.548 72.7273 27.164C73.1833 26.768 73.4113 26.264 73.4113 25.652C73.4113 25.172 73.2793 24.782 73.0153 24.482C72.7513 24.182 72.4213 23.954 72.0253 23.798C71.6293 23.642 71.0953 23.474 70.4233 23.294C69.5953 23.078 68.9293 22.862 68.4253 22.646C67.9333 22.43 67.5073 22.094 67.1473 21.638C66.7993 21.17 66.6253 20.546 66.6253 19.766C66.6253 19.082 66.7993 18.476 67.1473 17.948C67.4953 17.42 67.9813 17.012 68.6053 16.724C69.2413 16.436 69.9673 16.292 70.7833 16.292C71.9593 16.292 72.9193 16.586 73.6633 17.174C74.4193 17.762 74.8453 18.542 74.9413 19.514H73.1413C73.0813 19.034 72.8293 18.614 72.3853 18.254C71.9413 17.882 71.3533 17.696 70.6213 17.696C69.9373 17.696 69.3793 17.876 68.9473 18.236C68.5153 18.584 68.2993 19.076 68.2993 19.712C68.2993 20.168 68.4253 20.54 68.6773 20.828C68.9413 21.116 69.2593 21.338 69.6313 21.494C70.0153 21.638 70.5493 21.806 71.2333 21.998C72.0613 22.226 72.7273 22.454 73.2313 22.682C73.7353 22.898 74.1673 23.24 74.5273 23.708C74.8873 24.164 75.0673 24.788 75.0673 25.58C75.0673 26.192 74.9053 26.768 74.5813 27.308C74.2573 27.848 73.7773 28.286 73.1413 28.622C72.5053 28.958 71.7553 29.126 70.8913 29.126ZM79.4758 20.486V26.3C79.4758 26.78 79.5778 27.122 79.7818 27.326C79.9858 27.518 80.3398 27.614 80.8438 27.614H82.0498V29H80.5738C79.6618 29 78.9778 28.79 78.5218 28.37C78.0658 27.95 77.8378 27.26 77.8378 26.3V20.486H76.5598V19.136H77.8378V16.652H79.4758V19.136H82.0498V20.486H79.4758ZM83.4224 24.032C83.4224 23.024 83.6264 22.142 84.0344 21.386C84.4424 20.618 85.0004 20.024 85.7084 19.604C86.4284 19.184 87.2264 18.974 88.1024 18.974C88.9664 18.974 89.7164 19.16 90.3524 19.532C90.9884 19.904 91.4624 20.372 91.7744 20.936V19.136H93.4304V29H91.7744V27.164C91.4504 27.74 90.9644 28.22 90.3164 28.604C89.6804 28.976 88.9364 29.162 88.0844 29.162C87.2084 29.162 86.4164 28.946 85.7084 28.514C85.0004 28.082 84.4424 27.476 84.0344 26.696C83.6264 25.916 83.4224 25.028 83.4224 24.032ZM91.7744 24.05C91.7744 23.306 91.6244 22.658 91.3244 22.106C91.0244 21.554 90.6164 21.134 90.1004 20.846C89.5964 20.546 89.0384 20.396 88.4264 20.396C87.8144 20.396 87.2564 20.54 86.7524 20.828C86.2484 21.116 85.8464 21.536 85.5464 22.088C85.2464 22.64 85.0964 23.288 85.0964 24.032C85.0964 24.788 85.2464 25.448 85.5464 26.012C85.8464 26.564 86.2484 26.99 86.7524 27.29C87.2564 27.578 87.8144 27.722 88.4264 27.722C89.0384 27.722 89.5964 27.578 90.1004 27.29C90.6164 26.99 91.0244 26.564 91.3244 26.012C91.6244 25.448 91.7744 24.794 91.7744 24.05ZM97.8365 20.738C98.1245 20.174 98.5325 19.736 99.0605 19.424C99.6005 19.112 100.255 18.956 101.023 18.956V20.648H100.591C98.7545 20.648 97.8365 21.644 97.8365 23.636V29H96.1985V19.136H97.8365V20.738ZM104.911 20.486V26.3C104.911 26.78 105.013 27.122 105.217 27.326C105.421 27.518 105.775 27.614 106.279 27.614H107.485V29H106.009C105.097 29 104.413 28.79 103.957 28.37C103.501 27.95 103.273 27.26 103.273 26.3V20.486H101.995V19.136H103.273V16.652H104.911V19.136H107.485V20.486H104.911ZM118.47 23.69C118.47 24.002 118.452 24.332 118.416 24.68H110.532C110.592 25.652 110.922 26.414 111.522 26.966C112.134 27.506 112.872 27.776 113.736 27.776C114.444 27.776 115.032 27.614 115.5 27.29C115.98 26.954 116.316 26.51 116.508 25.958H118.272C118.008 26.906 117.48 27.68 116.688 28.28C115.896 28.868 114.912 29.162 113.736 29.162C112.8 29.162 111.96 28.952 111.216 28.532C110.484 28.112 109.908 27.518 109.488 26.75C109.068 25.97 108.858 25.07 108.858 24.05C108.858 23.03 109.062 22.136 109.47 21.368C109.878 20.6 110.448 20.012 111.18 19.604C111.924 19.184 112.776 18.974 113.736 18.974C114.672 18.974 115.5 19.178 116.22 19.586C116.94 19.994 117.492 20.558 117.876 21.278C118.272 21.986 118.47 22.79 118.47 23.69ZM116.778 23.348C116.778 22.724 116.64 22.19 116.364 21.746C116.088 21.29 115.71 20.948 115.23 20.72C114.762 20.48 114.24 20.36 113.664 20.36C112.836 20.36 112.128 20.624 111.54 21.152C110.964 21.68 110.634 22.412 110.55 23.348H116.778ZM120.02 24.032C120.02 23.024 120.224 22.142 120.632 21.386C121.04 20.618 121.598 20.024 122.306 19.604C123.026 19.184 123.83 18.974 124.718 18.974C125.486 18.974 126.2 19.154 126.86 19.514C127.52 19.862 128.024 20.324 128.372 20.9V15.68H130.028V29H128.372V27.146C128.048 27.734 127.568 28.22 126.932 28.604C126.296 28.976 125.552 29.162 124.7 29.162C123.824 29.162 123.026 28.946 122.306 28.514C121.598 28.082 121.04 27.476 120.632 26.696C120.224 25.916 120.02 25.028 120.02 24.032ZM128.372 24.05C128.372 23.306 128.222 22.658 127.922 22.106C127.622 21.554 127.214 21.134 126.698 20.846C126.194 20.546 125.636 20.396 125.024 20.396C124.412 20.396 123.854 20.54 123.35 20.828C122.846 21.116 122.444 21.536 122.144 22.088C121.844 22.64 121.694 23.288 121.694 24.032C121.694 24.788 121.844 25.448 122.144 26.012C122.444 26.564 122.846 26.99 123.35 27.29C123.854 27.578 124.412 27.722 125.024 27.722C125.636 27.722 126.194 27.578 126.698 27.29C127.214 26.99 127.622 26.564 127.922 26.012C128.222 25.448 128.372 24.794 128.372 24.05Z" fill="white"/>
<path d="M25 23L13 29.9282L13 16.0718L25 23Z" fill="white"/>
<defs>
<linearGradient id="paint0_linear_56_2" x1="142" y1="22" x2="1.77973e-07" y2="22" gradientUnits="userSpaceOnUse">
<stop stop-color="#00C650"/>
<stop offset="1" stop-color="#3D20E5"/>
</linearGradient>
</defs>
</svg>
