<svg width="33" height="32" viewBox="0 0 33 32" fill="none" xmlns="http://www.w3.org/2000/svg">
<path d="M6.04044 8.495V1.58682C6.04044 1.39448 6.11678 1.21 6.2527 1.07391C6.38863 0.937823 6.57301 0.86125 6.76535 0.861013H8.62507C8.81742 0.86125 9.0018 0.937823 9.13772 1.07391C9.27364 1.21 9.34999 1.39448 9.34999 1.58682V4.21531C9.35025 4.35565 9.39118 4.49291 9.46785 4.61046C9.54451 4.72801 9.65361 4.82082 9.78193 4.87764C9.91025 4.93447 10.0523 4.95287 10.1909 4.93062C10.3294 4.90837 10.4586 4.84643 10.5627 4.75229L15.6111 0.188004C15.7448 0.0670069 15.9186 0 16.0989 0C16.2791 0 16.453 0.0670069 16.5866 0.188004L32.0515 14.2684C32.1922 14.3965 32.2769 14.5747 32.2874 14.7647C32.298 14.9547 32.2335 15.1412 32.1079 15.2841L30.5444 17.0606C30.4808 17.1329 30.4035 17.1919 30.3169 17.234C30.2304 17.2761 30.1363 17.3006 30.0402 17.306C29.9441 17.3114 29.8478 17.2976 29.7571 17.2655C29.6663 17.2334 29.5829 17.1835 29.5116 17.1188L16.6054 5.39487C16.4717 5.27267 16.297 5.20492 16.1159 5.20492C15.9347 5.20492 15.7601 5.27267 15.6263 5.39487L2.91793 17.1125C2.84702 17.1778 2.76384 17.2282 2.67324 17.2609C2.58264 17.2937 2.48643 17.308 2.39021 17.3032C2.294 17.2984 2.19971 17.2744 2.11284 17.2328C2.02598 17.1911 1.94827 17.1326 1.88425 17.0606L0.183832 15.1517C0.0569399 15.0095 -0.0087747 14.823 0.000942719 14.6327C0.0106601 14.4424 0.0950261 14.2635 0.23574 14.135L5.80685 9.03377C5.881 8.96505 5.94005 8.88168 5.98026 8.78893C6.02047 8.69618 6.04096 8.59609 6.04044 8.495Z" fill="white" fill-opacity="0.6"/>
<path d="M5.46294 16.7538L15.6708 7.49545C15.8044 7.37426 15.9782 7.30713 16.1586 7.30713C16.3389 7.30713 16.5128 7.37426 16.6463 7.49545L26.8265 16.7538C26.9013 16.8218 26.9611 16.9047 27.0019 16.9972C27.0428 17.0896 27.0638 17.1897 27.0636 17.2908V30.2838C27.0636 30.4762 26.9872 30.6609 26.8511 30.797C26.7149 30.9331 26.5303 31.0096 26.3378 31.0096H19.9362C19.7437 31.0096 19.5591 30.9331 19.423 30.797C19.2869 30.6609 19.2104 30.4762 19.2104 30.2838V24.7458C19.2105 24.6505 19.1918 24.5561 19.1555 24.4681C19.1191 24.38 19.0657 24.3 18.9984 24.2326C18.9311 24.1652 18.8511 24.1117 18.7631 24.0752C18.6751 24.0387 18.5807 24.0199 18.4855 24.0199H13.8039C13.7086 24.0199 13.6143 24.0387 13.5262 24.0752C13.4381 24.1117 13.3581 24.1651 13.2907 24.2325C13.2233 24.2999 13.1699 24.3799 13.1334 24.468C13.0969 24.5561 13.0781 24.6504 13.0781 24.7458V30.2838C13.0781 30.4761 13.0018 30.6606 12.8659 30.7967C12.7299 30.9328 12.5456 31.0093 12.3532 31.0096H5.95069C5.85538 31.0096 5.761 30.9908 5.67294 30.9543C5.58488 30.9178 5.50487 30.8644 5.43747 30.797C5.37007 30.7296 5.31661 30.6496 5.28013 30.5615C5.24366 30.4735 5.22488 30.3791 5.22488 30.2838V17.2908C5.2249 17.1896 5.24609 17.0896 5.28709 16.9971C5.32809 16.9046 5.38799 16.8217 5.46294 16.7538Z" fill="white" fill-opacity="0.6"/>
</svg>
