<svg width="41" height="41" viewBox="0 0 41 41" fill="none" xmlns="http://www.w3.org/2000/svg">
<path opacity="0.4" d="M20.5 40C31.2696 40 40 31.2696 40 20.5C40 9.73045 31.2696 1 20.5 1C9.73045 1 1 9.73045 1 20.5C1 31.2696 9.73045 40 20.5 40Z" fill="#F9F9F9" stroke="#3D20E5" stroke-width="1.01" stroke-miterlimit="10"/>
<path opacity="0.4" d="M20.5 38.2999C30.3307 38.2999 38.3 30.3306 38.3 20.5C38.3 10.6693 30.3307 2.69995 20.5 2.69995C10.6693 2.69995 2.70001 10.6693 2.70001 20.5C2.70001 30.3306 10.6693 38.2999 20.5 38.2999Z" fill="#3D20E5"/>
<path d="M20.5 26.1801C23.637 26.1801 26.18 23.637 26.18 20.5001C26.18 17.3631 23.637 14.8201 20.5 14.8201C17.363 14.8201 14.82 17.3631 14.82 20.5001C14.82 23.637 17.363 26.1801 20.5 26.1801Z" stroke="white" stroke-width="0.5" stroke-miterlimit="10" stroke-dasharray="0.52 0.52"/>
<path d="M29.5525 24.2491C31.6238 19.2487 29.2492 13.516 24.2488 11.4448C19.2484 9.37352 13.5157 11.7481 11.4445 16.7485C9.37328 21.7489 11.7478 27.4816 16.7482 29.5528C21.7486 31.624 27.4813 29.2495 29.5525 24.2491Z" stroke="white" stroke-width="0.5" stroke-miterlimit="10" stroke-dasharray="0.53 0.53"/>
<path d="M20.5 34.1801C28.0553 34.1801 34.18 28.0553 34.18 20.5001C34.18 12.9448 28.0553 6.82007 20.5 6.82007C12.9448 6.82007 6.82001 12.9448 6.82001 20.5001C6.82001 28.0553 12.9448 34.1801 20.5 34.1801Z" stroke="white" stroke-width="0.5" stroke-miterlimit="10" stroke-dasharray="0.53 0.53"/>
<path d="M20.5 2.69995V38.29" stroke="white" stroke-width="0.5" stroke-miterlimit="10"/>
<path d="M38.29 20.5H2.70001" stroke="white" stroke-width="0.5" stroke-miterlimit="10"/>
<path opacity="0.8" d="M20.18 19.56L16.82 5.20999C16.8104 5.17451 16.7932 5.14158 16.7694 5.11355C16.7457 5.08551 16.716 5.06306 16.6826 5.04778C16.6492 5.0325 16.6128 5.02478 16.5761 5.02516C16.5393 5.02554 16.5031 5.03402 16.47 5.04999L10.47 8.14998C10.4377 8.16787 10.4097 8.19272 10.3881 8.22271C10.3666 8.2527 10.3519 8.2871 10.3452 8.32344C10.3385 8.35978 10.34 8.39715 10.3494 8.43287C10.3589 8.46858 10.3762 8.50175 10.4 8.52999L19.76 19.78C19.7978 19.8163 19.8461 19.8398 19.898 19.8472C19.9499 19.8546 20.0028 19.8455 20.0492 19.8211C20.0956 19.7968 20.1332 19.7585 20.1567 19.7117C20.1802 19.6648 20.1883 19.6117 20.18 19.56Z" fill="white"/>
<path opacity="0.8" d="M20.89 19.63L25.38 9.42996C25.3914 9.40719 25.4074 9.38709 25.4271 9.37098C25.4468 9.35488 25.4697 9.34313 25.4943 9.33651C25.5188 9.3299 25.5445 9.32857 25.5697 9.33261C25.5948 9.33665 25.6188 9.34597 25.64 9.35996L28.8 11.62C28.8189 11.6359 28.8342 11.6558 28.8446 11.6783C28.8551 11.7007 28.8605 11.7252 28.8605 11.75C28.8605 11.7747 28.8551 11.7992 28.8446 11.8216C28.8342 11.8441 28.8189 11.864 28.8 11.88L21.14 19.82C21.111 19.8369 21.0776 19.8448 21.0441 19.8427C21.0105 19.8407 20.9783 19.8287 20.9516 19.8084C20.9248 19.7881 20.9047 19.7603 20.8938 19.7285C20.8828 19.6968 20.8815 19.6625 20.89 19.63Z" fill="white"/>
<path opacity="0.8" d="M19.81 21.4502L12.75 33.4502C12.7303 33.4734 12.7058 33.492 12.6782 33.5048C12.6505 33.5175 12.6205 33.5241 12.59 33.5241C12.5596 33.5241 12.5295 33.5175 12.5019 33.5048C12.4743 33.492 12.4497 33.4734 12.43 33.4502L9.03003 30.1402C9.00796 30.1187 8.99041 30.0931 8.97842 30.0647C8.96644 30.0364 8.96027 30.0059 8.96027 29.9752C8.96027 29.9444 8.96644 29.9139 8.97842 29.8856C8.99041 29.8573 9.00796 29.8316 9.03003 29.8102L19.53 21.1702C19.5692 21.1514 19.6132 21.1453 19.656 21.1527C19.6988 21.16 19.7383 21.1805 19.769 21.2112C19.7997 21.2419 19.8202 21.2813 19.8275 21.3241C19.8349 21.3669 19.8287 21.411 19.81 21.4502Z" fill="white"/>
<path opacity="0.8" d="M21.61 20.2501L29.35 18.1401C29.5 18.1401 29.64 18.2601 29.64 18.4701V22.3801C29.64 22.5901 29.51 22.7501 29.36 22.7101L21.62 20.9201C21.35 20.8601 21.35 20.3101 21.61 20.2501Z" fill="white"/>
<path opacity="0.8" d="M21.53 21.4201L32.43 29.9501C32.4643 29.9627 32.4951 29.9832 32.5198 30.0101C32.5446 30.0369 32.5626 30.0693 32.5724 30.1044C32.5821 30.1396 32.5834 30.1766 32.576 30.2124C32.5687 30.2481 32.5529 30.2816 32.53 30.3101L30.45 32.6501C30.4285 32.6772 30.4011 32.699 30.3699 32.7141C30.3388 32.7291 30.3046 32.7369 30.27 32.7369C30.2354 32.7369 30.2013 32.7291 30.1701 32.7141C30.1389 32.699 30.1116 32.6772 30.09 32.6501L21.23 21.7501C21.2089 21.7069 21.2013 21.6584 21.2081 21.6109C21.2149 21.5633 21.2358 21.5189 21.2681 21.4833C21.3004 21.4478 21.3427 21.4228 21.3893 21.4115C21.436 21.4002 21.4851 21.4032 21.53 21.4201V21.4201Z" fill="white"/>
<path opacity="0.8" d="M20.7601 21.87L22.3501 31.41C22.3587 31.4517 22.3584 31.4947 22.3491 31.5363C22.3398 31.5778 22.3218 31.6169 22.2963 31.651C22.2708 31.685 22.2383 31.7132 22.201 31.7338C22.1637 31.7543 22.1225 31.7666 22.0801 31.77H18.7401C18.6967 31.7672 18.6546 31.7548 18.6168 31.7335C18.5789 31.7123 18.5463 31.6828 18.5214 31.6473C18.4964 31.6118 18.4797 31.5712 18.4726 31.5284C18.4654 31.4856 18.468 31.4417 18.4801 31.4L20.2201 21.86C20.2214 21.7884 20.2511 21.7203 20.3027 21.6706C20.3542 21.6209 20.4234 21.5937 20.4951 21.595C20.5667 21.5963 20.6348 21.6261 20.6845 21.6776C20.7342 21.7292 20.7614 21.7984 20.7601 21.87V21.87Z" fill="white"/>
<path opacity="0.8" d="M19.17 20.12L7.02001 16.64C6.9647 16.6245 6.90654 16.622 6.85012 16.6329C6.79371 16.6437 6.7406 16.6675 6.695 16.7025C6.6494 16.7374 6.61255 16.7825 6.58738 16.8341C6.56222 16.8858 6.54942 16.9426 6.55001 17V23.53C6.54984 23.5863 6.56254 23.642 6.58714 23.6927C6.61174 23.7434 6.6476 23.7878 6.69197 23.8225C6.73634 23.8572 6.78806 23.8813 6.84318 23.893C6.89829 23.9047 6.95535 23.9037 7.01001 23.89L19.16 20.89C19.2621 20.8913 19.3606 20.852 19.4337 20.7808C19.5068 20.7095 19.5487 20.6121 19.55 20.51C19.5513 20.4079 19.512 20.3094 19.4408 20.2363C19.3695 20.1632 19.2721 20.1213 19.17 20.12V20.12Z" fill="white"/>
</svg>
